<svg height="510pt" preserveAspectRatio="xMidYMid meet" viewBox="0 0 1261 510" width="1261pt" xmlns="http://www.w3.org/2000/svg"><g transform="matrix(.1 0 0 -.1 0 510)"><path d="m1600 4130v-960h160 160v960 960h-160-160z"/><path d="m7425 5078c-3-7-4-438-3-958l3-945 153-3 152-3v91 90l63-63c237-241 692-177 887 124 179 278 133 696-100 913-216 199-578 207-781 16-29-28-55-50-56-50-2 0-3 180-3 400v400h-155c-115 0-157-3-160-12zm840-927c78-39 145-111 177-189 18-45 22-77 22-152s-4-107-22-152c-32-80-99-150-180-190-61-30-74-33-162-33-82 0-103 4-150 26-115 55-187 151-211 282-21 115 15 243 92 332 100 114 290 147 434 76z"/><path d="m10 4111v-941h363c377 0 481 7 607 41 168 45 292 135 350 253 143 290 8 614-287 689l-52 13 65 28c330 144 336 625 10 784-130 64-139 65-618 69l-438 4zm745 638c155-29 222-105 213-244-5-87-39-134-127-178l-66-32-217-3-218-4v236 236h178c98 0 205-5 237-11zm112-771c121-34 183-113 183-233 0-92-16-134-70-187-79-76-136-89-412-96l-228-5v273 272l238-5c165-3 253-9 289-19z"/><path d="m2669 4466c-82-17-171-53-245-97-76-46-183-162-222-242-96-195-96-438 0-635 50-102 169-217 278-271 124-60 193-75 335-75s211 15 335 75c68 33 101 58 165 123 131 132 185 269 185 466s-55 335-185 466c-87 88-168 136-290 174-90 28-262 35-356 16zm252-292c160-46 259-185 259-363 0-184-103-325-270-367-174-44-353 39-427 200-25 55-28 72-28 166 0 97 2 110 31 170 81 167 256 246 435 194z"/><path d="m4201 4469c-147-26-269-89-373-193-120-120-182-278-182-466 0-265 131-483 359-594 110-54 182-70 325-70 145-1 237 20 355 82 88 46 208 163 252 247 59 112 78 195 78 335 0 103-4 138-23 200-37 116-79 187-162 271-83 83-190 144-305 175-73 19-250 26-324 13zm294-318c78-39 145-111 177-189 32-81 32-223 0-304-32-80-99-150-180-190-61-30-74-33-162-33-82 0-103 4-152 27-277 129-286 549-16 689 58 30 106 39 192 35 62-3 91-10 141-35z"/><path d="m5783 4465c-106-29-190-89-245-174l-28-45v102 102h-150-150v-640-640h159 160l3 403c3 395 3 403 26 452 28 60 73 109 127 138 55 29 183 30 238 3 46-23 82-74 96-136 6-27 11-211 11-452v-408h159 160l3 403 3 402 33 68c53 107 146 158 264 144 81-10 128-42 163-112l30-60 3-422 3-423h159 160v430c0 474-5 528-60 647-74 161-231 244-435 230-147-11-251-63-332-168l-46-59-15 30c-74 153-303 237-499 185z"/><path d="m9470 4465c-147-30-249-84-351-186-61-59-85-93-117-160-49-102-72-201-72-309 0-309 187-556 485-642 64-18 105-23 205-23 111 0 135 3 214 29 54 18 118 48 161 77 79 53 159 134 150 150-4 5-54 46-112 89l-106 80-58-55c-32-31-84-68-116-83-51-23-71-27-158-27s-107 3-155 26c-30 14-69 38-86 52-36 31-89 127-99 180l-7 37h482 483l-6 133c-6 147-27 239-80 347-42 88-150 196-237 238-119 59-277 76-420 47zm249-256c25-11 59-30 76-43 41-32 85-114 92-176l6-50h-322-323l7 33c19 87 72 172 137 214 81 54 232 64 327 22z"/><path d="m11003 4465c-108-30-180-81-239-169l-34-51v103 103l-157-3-158-3v-635-635l157-3 157-3 3 378 3 378 28 60c34 73 76 118 142 153 44 24 61 27 150 27 55 0 117-4 138-8l37-8v154c0 138-2 156-17 162-38 15-159 15-210 0z"/><path d="m11725 4465c-231-51-380-193-457-435-20-65-23-95-23-220 1-132 3-152 29-225 68-195 202-332 386-396 89-30 260-38 350-15 92 23 161 60 225 118l55 50v-38c0-22-5-81-10-133-24-223-133-328-352-339-166-8-280 27-410 125l-67 51-91-125c-50-69-89-131-86-138 16-42 202-141 331-177 110-30 424-33 525-5 181 50 316 158 388 308 86 179 94 262 90 1004l-3 570-152 3-153 3v-97-97l-29 40c-104 144-335 215-546 168zm370-309c76-35 137-95 171-169 26-56 29-72 29-167s-3-111-29-167c-33-73-103-143-173-176-40-18-66-21-158-22-99 0-116 3-167 27-73 34-137 98-174 174-26 54-29 68-29 164 0 93 3 112 27 162 28 61 96 136 147 162 100 52 257 57 356 12z"/><path d="m2 683 3-678h3320 3320l3 678 2 677h-3325-3325zm2258 412v-65h-65-65v65 65h65 65zm2820 0v-65h-60-60v65 65h60 60zm-4332-42 3-43h-175-176v-115-115l163-2 162-3 3-42 3-43h-166-166l3-147 3-148 173-3 172-2v-40-40h-225-225v395 395l223-2 222-3zm427-144c50-14 100-64 114-114 6-24 11-132 11-262v-223h-50-50v208c0 115-5 224-11 245-19 70-111 85-201 35l-38-22v-233-233h-50-50v295 295h45c25 0 45-3 45-7 0-5 4-15 10-23 7-12 12-12 29 4 21 19 97 44 136 45 11 1 38-4 60-10zm573-25c41-24 42-24 42-4 0 17 6 20 51 20h51l-4-292c-4-281-5-295-27-345-50-112-145-160-301-151-111 7-130 17-130 69 0 48 16 57 62 32 49-26 171-25 218 2 43 25 70 76 70 132v42l-36-21c-112-66-246-28-307 86-19 36-22 56-22 166 0 140 11 174 78 238 69 67 168 77 255 26zm1086 27c49-12 100-61 115-110 7-24 11-124 11-265v-226h-50-50v219c0 121-4 231-10 246-15 40-73 60-133 46-27-6-62-20-78-32l-29-20v-230-229h-50-50v295 295h46c37 0 47-4 51-20 7-25 4-25 48 1 60 36 114 45 179 30zm617-21c75-39 119-131 119-250v-50l-197-2-198-3 3-40c6-61 40-115 92-143 38-20 56-23 115-20 46 2 85 11 116 26 25 12 48 22 52 22s7-22 7-49v-49l-47-17c-74-25-179-30-244-12-81 24-132 65-165 134-26 53-29 68-29 163 0 119 19 177 78 238 77 81 199 102 298 52zm589 0c69-35 107-109 117-225l6-75h-203-203l7-47c9-66 47-120 103-145 60-27 160-22 221 10 23 12 47 22 52 22 6 0 10-22 10-50v-49l-57-18c-88-27-214-24-281 6-111 50-158 147-150 308 4 78 10 103 34 150 35 67 86 111 151 129 60 17 142 10 193-16zm685 14c11-4 15-21 15-56 0-50 0-50-27-44-115 26-145 20-212-40l-51-46v-163-164l58-3 57-3 3-37 3-38h-155-156v40 40h45 45v215 215h-45-45v40 40h90 90v-29c0-61 8-64 58-21 66 55 107 71 165 65 26-3 54-8 62-11zm982-15c17-11 41-39 52-63 19-39 21-60 21-279v-237h-49-50l-3 235c-3 228-4 235-25 257-33 32-112 31-173-3l-45-24-3-233-2-232h-50-50v295 295h46c37 0 47-4 51-20 7-25 4-25 48 1 20 12 51 25 68 30 46 12 127 1 164-22zm519-3c40-23 43-23 47-5 4 15 15 19 51 19h46v-270c0-293-6-344-50-413-54-86-212-130-349-97l-51 12v50c0 56-5 54 80 23 31-12 64-16 106-12 106 8 148 48 160 153 7 57 6 59-12 43-94-81-247-66-311 30-82 121-65 347 31 440 65 63 168 74 252 27zm-3966-241v-255h60 60v-40-40h-186-185l3 38 3 37 73 3 72 3v214 215h-60-60v40 40h110 110zm2820 0v-255h60 60v-40-40h-180-180v40 40h70 70v215 215h-60-60v40 40h110 110z"/><path d="m1593 814c-51-26-76-75-81-163-8-142 34-220 124-228 38-3 59 1 94 19l45 23v160 160l-45 23c-52 26-93 28-137 6z"/><path d="m3250 808c-38-27-70-81-70-120v-28h145 145v28c0 40-41 115-70 129-41 21-113 16-150-9z"/><path d="m3860 823c-41-15-82-71-95-130l-7-33h152 153l-7 41c-9 58-31 96-66 114-28 15-100 19-130 8z"/><path d="m6080 813c-72-37-104-137-82-255 19-102 69-145 156-136 25 3 61 15 80 28l36 22-2 156-3 155-37 19c-55 29-106 32-148 11z"/></g></svg>