<svg fill="none" height="86" viewBox="0 0 417 86" width="417" xmlns="http://www.w3.org/2000/svg"><g fill="#18181b"><path d="m56.5649 26.7968c-.7532.7762-.7532 2.0337 0 2.8099l8.2371 8.4884c.7531.7761.7531 2.0337 0 2.8098l-8.2371 8.4884c-.7532.7762-.7532 2.0337 0 2.8099l4.0899 4.2147c.7532.7761 1.9735.7761 2.7266 0l15.0537-15.513c.7532-.7761.7532-2.0337 0-2.8098l-15.0537-15.513c-.7531-.7761-1.9734-.7761-2.7266 0z"/><path d="m49.2128 59.1096c-.7746-.7717-2.0296-.7717-2.8042 0l-5.3632 5.3432c-.7746.7717-2.0296.7717-2.8042 0l-23.6492-23.5608c-.7746-.7717-.7746-2.022 0-2.7937l23.6492-23.5608c.7746-.7717 2.0296-.7717 2.8042 0l5.3632 5.3431c.7746.7717 2.0296.7717 2.8042 0l4.2063-4.1905c.7745-.7717.7745-2.022 0-2.7937l-12.3737-12.317636c-.7746-.771685-2.0296-.771685-2.8042 0l-37.660265 37.529236c-.77458.7717-.77458 2.022 0 2.7937l37.660265 37.5195c.7746.7717 2.0296.7717 2.8042 0l12.3737-12.3274c.7745-.7717.7745-2.022 0-2.7937z"/><path d="m50 39.5c0 5.2433-4.4807 9.5-10 9.5s-10-4.2567-10-9.5 4.4807-9.5 10-9.5 10 4.2567 10 9.5z"/><path d="m379 69v-40.2054h8.581l.817 3.8934h.408c.981-1.2184 2.507-2.3043 4.577-3.2578s4.494-1.4302 7.273-1.4302c3.16 0 5.966.7151 8.417 2.1453 2.506 1.3773 4.44 3.3637 5.802 5.9594 1.417 2.5426 2.125 5.456 2.125 8.7403v24.155h-9.888v-22.8837c0-1.7481-.382-3.2843-1.144-4.6085-.763-1.3773-1.825-2.4367-3.187-3.1783-1.362-.7946-2.888-1.1919-4.577-1.1919-1.798 0-3.405.3973-4.821 1.1919-1.417.7945-2.534 1.8804-3.351 3.2577-.762 1.3243-1.144 2.834-1.144 4.5291v22.8837z"/><path d="m354.356 70c-3.802 0-7.26-.9049-10.376-2.7148-3.115-1.8099-5.571-4.3118-7.366-7.5057-1.743-3.194-2.614-6.7871-2.614-10.7795s.871-7.5855 2.614-10.7795c1.795-3.1939 4.251-5.6958 7.366-7.5057 3.116-1.8099 6.574-2.7148 10.376-2.7148 3.644 0 6.971.8783 9.981 2.635 3.01 1.7566 5.359 4.1787 7.049 7.2661 1.743 3.0343 2.614 6.4145 2.614 10.1407 0 .905-.053 1.7567-.158 2.5552-.053.7452-.132 1.2775-.238 1.5969h-30.02c.211 1.8631.819 3.5399 1.822 5.0304s2.271 2.635 3.802 3.4335c1.584.7985 3.3 1.1977 5.148 1.1977 2.007 0 3.75-.4258 5.228-1.2776 1.532-.8517 2.693-1.8897 3.485-3.114h9.822c-.686 2.076-1.848 4.0722-3.485 5.9886-1.584 1.8631-3.644 3.4334-6.178 4.711-2.535 1.2243-5.492 1.8365-8.872 1.8365zm10.139-24.3536c-.211-1.8099-.766-3.4335-1.663-4.8707-.898-1.4905-2.086-2.6616-3.565-3.5133-1.425-.8518-3.062-1.2776-4.911-1.2776-1.953 0-3.696.4258-5.227 1.2776-1.532.8517-2.773 2.0228-3.723 3.5133-.951 1.4372-1.558 3.0608-1.822 4.8707z"/><path d="m309.036 86c-4.345 0-8.002-.7723-10.972-2.3168-2.914-1.5445-5.087-3.4619-6.517-5.7521s-2.2-4.5271-2.31-6.7107h10.147c.165 1.0119.605 1.9972 1.32 2.9559s1.76 1.731 3.135 2.3168c1.43.6391 3.162.9587 5.197.9587 3.025 0 5.445-.8522 7.26-2.5565 1.815-1.651 2.722-3.888 2.722-6.7107v-5.7521h-.412c-1.155 1.3315-2.778 2.4233-4.868 3.2755-2.034.7989-4.289 1.1983-6.764 1.1983-3.575 0-6.82-.8255-9.735-2.4766-2.859-1.651-5.114-3.9412-6.764-6.8705-1.65-2.9825-2.475-6.3379-2.475-10.0661 0-3.7814.825-7.1368 2.475-10.0661 1.65-2.9826 3.905-5.2994 6.764-6.9504 2.915-1.6511 6.16-2.4766 9.735-2.4766 2.64 0 4.977.4793 7.012 1.438 2.09.9054 3.822 2.1837 5.197 3.8347h.413l.825-4.4738h8.579v39.4656c0 3.5151-.797 6.6042-2.392 9.2672-1.54 2.7162-3.823 4.7934-6.847 6.2314-3.025 1.4913-6.6 2.2369-10.725 2.2369zm-.495-27.6419c1.925 0 3.685-.4527 5.28-1.3581 1.65-.9587 2.915-2.2635 3.795-3.9146.935-1.6511 1.402-3.5152 1.402-5.5923s-.467-3.9412-1.402-5.5923c-.88-1.651-2.145-2.9293-3.795-3.8347-1.595-.9587-3.355-1.438-5.28-1.438s-3.712.4793-5.362 1.438c-1.595.9054-2.86 2.1837-3.795 3.8347-.88 1.6511-1.32 3.5152-1.32 5.5923s.44 3.9412 1.32 5.5923c.935 1.6511 2.2 2.9559 3.795 3.9146 1.65.9054 3.437 1.3581 5.362 1.3581z"/><path d="m265.865 70c-3.897 0-7.442-.9049-10.635-2.7148-3.194-1.8099-5.711-4.3118-7.551-7.5057-1.786-3.194-2.679-6.7871-2.679-10.7795s.893-7.5855 2.679-10.7795c1.84-3.1939 4.357-5.6958 7.551-7.5057 3.193-1.8099 6.738-2.7148 10.635-2.7148 3.735 0 7.145.8783 10.23 2.635 3.085 1.7566 5.494 4.1787 7.226 7.2661 1.786 3.0343 2.679 6.4145 2.679 10.1407 0 .905-.054 1.7567-.162 2.5552-.055.7452-.136 1.2775-.244 1.5969h-30.77c.216 1.8631.839 3.5399 1.867 5.0304s2.327 2.635 3.897 3.4335c1.624.7985 3.383 1.1977 5.277 1.1977 2.057 0 3.843-.4258 5.359-1.2776 1.569-.8517 2.76-1.8897 3.572-3.114h10.067c-.703 2.076-1.894 4.0722-3.572 5.9886-1.624 1.8631-3.735 3.4334-6.333 4.711-2.598 1.2243-5.629 1.8365-9.093 1.8365zm10.392-24.3536c-.216-1.8099-.784-3.4335-1.705-4.8707-.92-1.4905-2.137-2.6616-3.653-3.5133-1.461-.8518-3.139-1.2776-5.034-1.2776-2.002 0-3.788.4258-5.358 1.2776-1.57.8517-2.842 2.0228-3.816 3.5133-.974 1.4372-1.597 3.0608-1.867 4.8707z"/><path d="m217.498 70c-3.426 0-6.561-.8831-9.407-2.6493-2.793-1.8197-5.007-4.3084-6.64-7.4662-1.634-3.2113-2.451-6.8775-2.451-10.9986s.817-7.7605 2.451-10.9183c1.633-3.2113 3.847-5.7 6.64-7.4662 2.846-1.8197 5.981-2.7296 9.407-2.7296 2.582 0 4.849.5085 6.798 1.5254 2.003.9634 3.584 2.1676 4.744 3.6127h.395v-19.9099h9.565v56.1972h-8.3l-.791-4.6564h-.395c-1.265 1.6592-2.899 2.9972-4.901 4.0141-2.003.9634-4.375 1.4451-7.115 1.4451zm1.502-8.9915c1.95 0 3.715-.5085 5.296-1.5254s2.82-2.4352 3.716-4.2549c.948-1.8198 1.423-3.9338 1.423-6.3423 0-2.4084-.475-4.5225-1.423-6.3422-.896-1.8198-2.135-3.2113-3.716-4.1747-1.581-1.0169-3.346-1.5253-5.296-1.5253-1.897 0-3.636.5084-5.217 1.5253-1.581.9634-2.846 2.3549-3.795 4.1747-.896 1.8197-1.344 3.9338-1.344 6.3422 0 2.4085.448 4.5225 1.344 6.3423.949 1.8197 2.214 3.238 3.795 4.2549s3.32 1.5254 5.217 1.5254z"/><path d="m174.959 70c-3.93 0-7.505-.9049-10.725-2.7148-3.166-1.8099-5.676-4.3118-7.532-7.5057-1.801-3.194-2.702-6.7871-2.702-10.7795s.901-7.5855 2.702-10.7795c1.856-3.1939 4.366-5.6958 7.532-7.5057 3.22-1.8099 6.795-2.7148 10.725-2.7148 3.984 0 7.56.9049 10.725 2.7148 3.22 1.8099 5.731 4.3118 7.532 7.5057 1.856 3.194 2.784 6.7871 2.784 10.7795s-.928 7.5855-2.784 10.7795c-1.801 3.1939-4.312 5.6958-7.532 7.5057-3.165 1.8099-6.741 2.7148-10.725 2.7148zm0-9.0228c2.02 0 3.875-.4791 5.567-1.4373 1.692-1.0114 3.03-2.422 4.012-4.2319 1.037-1.8631 1.556-3.9658 1.556-6.308s-.519-4.4183-1.556-6.2281c-.982-1.8632-2.32-3.2738-4.012-4.232-1.692-1.0114-3.547-1.5171-5.567-1.5171-2.019 0-3.875.5057-5.567 1.5171-1.692.9582-3.029 2.3688-4.012 4.232-.982 1.8098-1.474 3.8859-1.474 6.2281s.492 4.4449 1.474 6.308c.983 1.8099 2.32 3.2205 4.012 4.2319 1.692.9582 3.548 1.4373 5.567 1.4373z"/><path d="m126.391 70c-5.024 0-9.643-1.2352-13.857-3.7056-4.16-2.4703-7.456-5.9074-9.887-10.3111s-3.647-9.3981-3.647-14.9833 1.216-10.5796 3.647-14.9833 5.727-7.8408 9.887-10.3111c4.214-2.4704 8.833-3.7056 13.857-3.7056 4.593 0 8.672.9667 12.237 2.9 3.62 1.9333 6.538 4.4843 8.753 7.6528 2.269 3.1148 3.809 6.4713 4.619 10.0694h-10.616c-.594-1.9333-1.567-3.7055-2.918-5.3166-1.35-1.6112-3.079-2.9-5.186-3.8667-2.053-.9667-4.349-1.45-6.889-1.45-3.133 0-5.997.8055-8.59 2.4167-2.593 1.5574-4.646 3.7861-6.159 6.6861-1.459 2.8463-2.188 6.149-2.188 9.9083s.729 7.0889 2.188 9.9889c1.513 2.8463 3.566 5.075 6.159 6.6861 2.593 1.5574 5.457 2.3361 8.59 2.3361 3.89 0 7.132-1.0472 9.725-3.1417 2.648-2.1481 4.403-4.7796 5.268-7.8944h10.616c-.756 3.6519-2.242 7.0889-4.457 10.3111-2.215 3.1685-5.133 5.7463-8.752 7.7333-3.566 1.9871-7.699 2.9806-12.4 2.9806z"/></g></svg>