<svg fill="none" height="347" viewBox="0 0 1455 347" width="1455" xmlns="http://www.w3.org/2000/svg"><g fill="#293136"><path d="m205.374 103.43h-35.983c-9.082 0-13.444 4.028-13.444 12.79v110.197l-73.2345-113.295c-5.0893-7.858-8.3549-9.32-18.5335-9.692h-35.4282c-9.4516 0-13.8016 4.028-13.8016 12.79v209.253c0 8.762 4.35 12.79 13.8016 12.79h35.9827c9.4393 0 13.8016-4.028 13.8016-12.79v-109.652l73.5919 112.75c5.459 8.229 8.367 9.692 18.534 9.692h34.898c9.439 0 13.802-4.028 13.802-12.79v-209.253c-.37-8.762-4.72-12.79-13.987-12.79z"/><path d="m46.741 79.6861c21.8804 0 39.6179-17.8384 39.6179-39.8431s-17.7375-39.843-39.6179-39.843-39.61795 17.8383-39.61795 39.843 17.73755 39.8431 39.61795 39.8431z"/><path d="m456.366 182.089c10.474-13.484 23.906-20.647 41.922-20.647 32.693 0 52.385 22.753 52.385 52.682v71.234c.419 3.371-1.676 5.057-5.028 5.057h-11.312c-3.352 0-5.447-1.686-5.028-5.057v-70.813c0-16.854-13.839-31.192-31.436-31.192-17.19 0-31.016 13.917-31.016 29.507v72.498c.419 3.371-1.676 5.057-5.028 5.057h-11.325c-3.352 0-5.028-1.686-5.028-5.057v-71.234c0-16.854-13.826-30.771-31.016-30.771-16.759 0-31.017 13.495-31.017 29.507v72.92c.419 3.37-1.676 5.056-5.446 5.056h-10.894c-3.352 0-5.447-1.686-5.447-5.056v-116.741c-.419-3.371 1.676-5.478 5.447-5.478h10.475c2.932 0 4.189 1.264 4.189 3.792v8.849c8.811-9.27 19.705-14.326 32.693-14.326 17.609-.422 31.435 6.741 41.91 20.225zm111.497 45.097c0-35.815 28.909-65.744 65.385-65.744 17.597 0 32.68 7.163 45.262 21.489v-14.326c0-3.371 1.676-4.635 5.028-4.635h10.055c3.352 0 5.028 1.686 5.028 5.478v116.753c0 3.371-1.676 5.056-5.028 5.056h-10.055c-3.352 0-5.028-1.685-5.028-4.635v-14.326c-12.163 13.905-27.246 21.068-44.855 21.068-36.883-.843-65.804-30.338-65.804-66.178zm108.971 0c0-24.86-19.285-43.833-44.017-43.833-23.882 0-43.167 19.394-43.167 43.833 0 24.873 19.285 43.846 43.598 43.846 5.726.003 11.396-1.129 16.686-3.331 5.291-2.203 10.097-5.432 14.145-9.505 4.049-4.072 7.259-8.907 9.447-14.228 2.189-5.321 3.313-11.024 3.308-16.782zm64.547 44.689v65.335c.419 3.371-1.676 5.478-5.04 5.478h-11.313c-3.351 0-5.446-1.686-5.446-5.478v-168.605c0-3.371 1.676-5.478 5.446-5.478h10.475c3.364-.421 5.459 1.686 5.459 4.635v13.905c12.15-13.905 27.233-20.646 44.424-20.646 36.044 0 65.385 29.916 65.385 65.744s-28.922 65.756-65.385 65.756c-17.61 0-32.286-6.741-44.005-20.646zm43.586-88.522c-23.894 0-43.167 19.394-43.167 43.833 0 24.873 19.273 43.846 43.586 43.846 24.732 0 43.586-19.395 43.586-43.846 0-24.439-19.273-43.833-44.005-43.833zm102.686 88.522v65.335c.419 3.371-1.676 5.478-5.028 5.478h-11.324c-3.352 0-5.447-1.686-5.447-5.478v-168.605c0-3.371 1.676-5.478 5.447-5.478h10.474c3.364-.421 5.459 1.686 5.459 4.635v13.905c12.15-13.905 27.234-20.646 44.424-20.646 36.044 0 65.385 29.916 65.385 65.744s-28.922 65.756-65.385 65.756c-17.597 0-31.855-6.741-44.005-20.646zm43.586-88.522c-23.894 0-43.167 19.394-43.167 43.833 0 24.873 19.273 43.846 43.586 43.846 24.732 0 43.586-19.395 43.586-43.846 0-24.439-19.273-43.833-43.993-43.833zm195.321 51.851h-93.9c2.09 21.068 21.38 37.092 44.42 37.092 12.57 0 23.47-2.949 33.11-10.125 2.1-1.264 4.19-2.107 4.61-2.107 1.68 0 2.93.843 4.19 2.962l4.19 7.163c.85 1.264 1.27 2.107 1.27 2.95 0 1.685-1.26 3.371-4.19 5.478-13.42 9.269-28.5 14.326-44.44 14.326-38.56 0-66.22-28.653-66.22-65.757 0-36.67 28.5-65.744 64.13-65.744 35.2 0 58.26 26.124 58.26 64.071 0 4.214 0 9.691-5.45 9.691zm-93.89-16.854h77.53c-2.09-23.187-16.34-37.104-36.88-37.104-10.22-.281-20.16 3.421-27.73 10.332-7.58 6.912-12.21 16.499-12.92 26.76zm111.06 8.836c0-35.815 28.93-65.744 65.39-65.744 17.61 0 31.85 6.742 43.58 20.647v-64.072c-.41-3.37 1.68-5.477 5.03-5.477h11.33c3.35 0 5.44 1.685 5.44 5.477v167.763c0 3.37-1.67 5.056-5.44 5.056h-10.48c-3.36.421-5.46-1.686-5.46-4.635v-14.326c-12.57 13.905-27.23 21.068-44.42 21.068-36.04-.422-64.97-29.917-64.97-65.757zm108.57 0c0-24.86-19.29-43.833-44.02-43.833-23.89 0-43.17 19.394-43.17 43.833 0 24.873 19.28 43.846 43.59 43.846 5.74.04 11.42-1.068 16.73-3.257 5.31-2.19 10.13-5.418 14.18-9.498 4.06-4.079 7.27-8.929 9.44-14.266 2.18-5.337 3.28-11.056 3.24-16.825zm46.94-88.51c-.04-1.559.24-3.11.81-4.558.58-1.449 1.44-2.764 2.54-3.867s2.4-1.971 3.84-2.551c1.44-.579 2.99-.859 4.54-.822 1.54-.003 3.07.3 4.49.892 1.43.591 2.72 1.46 3.81 2.557 1.09 1.096 1.95 2.398 2.54 3.831.59 1.432.89 2.968.89 4.518.04 1.56-.24 3.111-.82 4.559-.57 1.448-1.44 2.764-2.53 3.867-1.1 1.103-2.41 1.971-3.85 2.55-1.44.58-2.98.86-4.53.822-6.71.422-11.73-4.635-11.73-11.798zm.83 146.682v-116.753c0-3.371 1.68-5.478 5.03-5.478h11.31c3.36 0 5.45 1.686 5.03 5.478v116.753c.42 3.371-1.67 5.057-5.03 5.057h-11.31c-3.35 0-5.03-1.686-5.03-5.057zm66.23-118.017v8.427c9.21-9.691 20.11-14.326 33.1-14.326 32.28 0 51.97 22.332 51.97 52.261v71.655c.42 3.371-1.67 5.057-5.02 5.057h-11.32c-3.36 0-5.04-1.686-5.04-5.057v-71.234c0-16.854-13.82-30.771-31.01-30.771-16.76 0-31.01 13.495-31.01 29.507v72.92c.42 3.37-1.67 5.056-5.46 5.056h-11.31c-3.35 0-5.45-1.686-5.45-5.056v-117.175c-.41-3.371 1.68-5.056 5.45-5.056h10.48c2.93 0 4.62 1.264 4.62 3.792z"/></g></svg>