<svg enable-background="new 190 -367 266 91.7" viewBox="190 -367 266 91.7" xmlns="http://www.w3.org/2000/svg"><path d="m393.7-340c-.2-.5-.5-1.1-1-1.6-11-12.1-81.5-1.2-111.5 5.3l-.7.2c-.1 0-.2.2-.2.3s.2.2.3.2l.7-.1c24.9-4.4 76.6-10.6 87.7.5 3.4 3.4 2.6 7.7-1.3 12.8 2.1 1.4 3.6 3.5 4.3 6.2.5-.3.9-.6 1.4-.9-.4.3-.9.6-1.4.9.1.5.2 1 .3 1.5 0 0 .1 0 .1-.1 17.2-10.6 26.6-17.2 21.3-25.2zm.3 1.7c0-.1 0-.2 0-.3zm-.1-1.1c0-.1 0-.2-.1-.3 0 .1.1.2.1.3zm.1.5c0-.1 0-.2 0-.3zm-1.2 4.3c0 .1-.1.1-.1.2 0-.1.1-.1.1-.2zm1.2-3.3v.3c-.1-.1-.1-.2 0-.3zm-.1.6c0 .1 0 .2-.1.3 0-.1 0-.2.1-.3zm-.2.7c0 .1-.1.2-.1.3 0-.1.1-.2.1-.3zm-.2.6c0 .1-.1.2-.1.3 0-.1 0-.2.1-.3zm-.3.7c0 .1-.1.2-.1.3 0-.1 0-.2.1-.3zm-5.4 6.8.4-.4c-.1.2-.2.3-.4.4zm-14 11.1c.3-.2.6-.4.9-.6-.3.1-.6.3-.9.6zm1.4-1c.3-.2.5-.4.8-.6-.3.2-.5.4-.8.6zm1.3-.9c.2-.2.5-.3.7-.5-.2.1-.4.3-.7.5zm1.3-1c.2-.2.5-.3.7-.5-.2.2-.5.4-.7.5zm1.2-.9c.2-.2.4-.3.7-.5-.2.2-.4.4-.7.5zm1.2-.9c.2-.2.4-.3.6-.5-.2.2-.4.4-.6.5zm1.2-.9c.2-.2.4-.3.6-.5-.2.2-.4.4-.6.5zm1.1-.8c.2-.2.4-.3.6-.5-.2.1-.4.3-.6.5zm1.1-.9c.2-.2.4-.4.6-.5-.2.1-.4.3-.6.5zm1.4-1.2c.2-.2.4-.3.6-.5-.2.2-.4.4-.6.5zm1-.9c.2-.1.3-.3.5-.4-.2.1-.3.2-.5.4zm1-.9.4-.4c-.2.2-.3.3-.4.4zm4.4-4.7c.1-.1.2-.2.2-.3-.1.1-.1.2-.2.3zm-2.8 3.1.4-.4c-.1.1-.2.3-.4.4zm.8-.8c.1-.1.2-.2.3-.4-.1.2-.2.3-.3.4zm.7-.8.3-.3c-.1.1-.2.2-.3.3zm.7-.8.3-.3c-.1.1-.2.2-.3.3zm1.3-1.7c-.1.1-.1.2-.2.3.1-.2.1-.3.2-.3z" fill="#a0272f"/><path d="m347.1-304.6c-7 4.9-15.2 10.1-24.1 15.5l-.3.2c-.1.1-.1.2-.1.4.1.1.2.1.4.1l.3-.2c1.2-.6 2.4-1.2 3.6-1.9-.2.1-.3.2-.5.3 8.7-3.9 15.8-7.4 22.5-11-.2-.3-.4-.6-.6-.9-.5-.7-.9-1.6-1.2-2.5zm-1.9 4.2c1-.5 1.9-1.1 2.9-1.6-.9.6-1.9 1.1-2.9 1.6zm-13.8 7.5c.1 0 .1-.1.2-.1-.1 0-.1.1-.2.1zm2.6-1.4c.1-.1.2-.1.4-.2-.2.1-.3.2-.4.2zm2.7-1.4c.2-.1.4-.2.5-.3-.2.1-.3.2-.5.3zm2.8-1.5c.2-.1.4-.2.6-.3-.2 0-.4.1-.6.3zm2.8-1.6c.3-.2.6-.3.9-.5-.3.2-.6.4-.9.5z" fill="#a0272f"/><g fill="#003a6f"><path d="m351.6-307.8c.1 4.3 2.8 7.7 6.3 7.7 6.8 0 9.7-8.4 9.5-13.9-.1-4.3-2.9-7.7-6.4-7.7-5.9 0-9.6 8.3-9.4 13.9zm-3.6-.2c-.3-7.3 5.4-14.7 13.7-14.7 5.5 0 9.1 3.7 9.3 9.3.3 7.7-5.1 14.7-13.7 14.7-5.5 0-9.1-3.7-9.3-9.3z"/><path d="m269.7-309.9c-.3.1-.7.2-1.1.3-.5.1-1.3.3-2.6.5-.9.1-1.5.3-1.8.6-.3.2-.5.5-.6.9s.1.7.4.9.9.3 1.7.3c.6 0 1.2-.1 1.7-.3.6-.2 1-.4 1.4-.7.3-.2.5-.5.6-.9 0-.3.1-.8.3-1.6zm7.1-4.5c0 .7-.1 1.3-.3 2.3l-1.2 6.8c-.1.6.1 1.1.7 1.4v.3h-7l-.1-1.7c-1 .6-2.2 1.1-3.3 1.4s-2 .4-3.3.4c-2.2 0-3.5-.2-4.4-1s-1.3-1.3-1.3-2.4c0-.6.4-1.5.8-2 .5-.6 1.1-1 1.9-1.3.7-.3 1.6-.6 2.8-.8s2.9-.4 5.2-.6c1.2-.1 1.9-.4 2.3-.5.5-.2.7-.4.7-.8.1-.7-.1-1.1-1-1.3-2.5-.5-7.2.3-9.6.9l1.3-3.6c3.2-.5 6.2-.8 9.3-.8 5 0 6.6 1.5 6.5 3.3z"/><path d="m297-303.6 2.4-13.6h6.7l-2.4 13.6zm2.8-16.8c.2-1.1 2-2 3.9-2 2 0 3.4.9 3.2 2s-2 2-4 2c-1.9 0-3.3-.9-3.1-2z"/><path d="m329.8-309.9c-.3.1-.7.2-1.2.3s-1.3.2-2.6.5c-.9.1-1.5.3-1.8.6-.3.2-.5.5-.6.9s.1.7.4.9.9.3 1.7.3c.6 0 1.1-.1 1.7-.3s1-.4 1.4-.7c.3-.2.5-.5.6-.9.1-.3.2-.8.4-1.6zm7.2-4.5c0 .7-.1 1.3-.3 2.3l-1.2 6.8c-.1.6.1 1.1.7 1.4v.2h-7l-.1-1.7c-1 .6-2.2 1.1-3.3 1.4s-2 .4-3.3.4c-2.2 0-3.5-.2-4.4-1s-1.3-1.3-1.3-2.4c0-.6.4-1.5.8-2 .5-.6 1.1-1 1.9-1.3.7-.3 1.6-.6 2.8-.8s3-.4 5.3-.6c1.2-.1 1.9-.4 2.3-.5.5-.2.7-.4.7-.8.1-.7-.1-1.1-1-1.3-2.5-.5-7.2.3-9.6.9l1.3-3.5c3.2-.5 6.2-.8 9.3-.8 4.8.1 6.4 1.5 6.4 3.3z"/><path d="m255.6-308.5c-2.2.4-3.4.6-5.5.6-3.2 0-5.7-1.6-5.6-4.5.1-1.9 2.4-6 8.2-6 1.8 0 3.3.3 5.2 1.4l.8-4.7c-2.6-1-4.3-1.1-6.6-1.1-7.6.1-14.9 3.5-15.8 10.6-.9 7.2 7.8 9 11.7 8.9 2.2 0 4.6-.1 6.7-.3z"/><path d="m309.8-317.4.5-2.8 7-1.5-.7 4.3h3.4l-.6 2.7h-3.3l-2 11h-6.7l2-10.9h-2.5l.5-2.8z"/><path d="m343.7-303.7-6.8.1 3.4-19.1 6.7.2z"/><path d="m288.2-314.1c-.9 0-1.7.3-2.4.8s-1.1 1.3-1.3 2.3c-.2 1.2-.1 2 .4 2.6.5.5 1.2.8 2.1.8.6 0 1.2-.1 1.7-.3.6-.3 1-.6 1.3-1.1.4-.5.6-1.1.7-1.8.2-1.1 0-1.9-.5-2.4-.5-.6-1.1-.9-2-.9zm-12.1 15.2 3.2-18.3h5.9l-.5 2.3c.5-.7 1.3-1.3 2.4-1.7 1.1-.5 2.4-.8 3.8-.8 1.5 0 2.5.1 3.6.7s1.9 1.5 2.4 2.6c.4 1.1.5 2.4.3 3.7-.4 2.3-1.5 4-3.3 5.3s-3.4 1.6-5.7 1.7c-.8 0-1.5-.1-2.1-.2s-1-.3-1.3-.5-.7-.5-1.1-1l-1.1 6.3h-6.5z"/><path d="m397.1-312.4c0-1.1-.6-1.8-1.7-1.8-2.7 0-5.6 5.4-6.1 7.5 4.4 0 7.9-2.7 7.8-5.7zm.5 8.4.5.4c-1.3 2.7-4.1 4.9-7.2 4.9-2.6 0-4.7-1.7-4.9-5-.2-5.8 5.3-11.3 9.7-11.3 1.9 0 3.7.8 3.8 2.9.2 4.6-6.4 6.1-10.7 6.2-.1.5-.2 1-.2 1.7.1 1.9 1.2 3.5 3.6 3.5 2.3 0 4.4-1.7 5.4-3.3z"/><path d="m370.9-312.6c.5-.1 1.2-.1 1.5-.1.5 0 1 .1 1 .6 0 .3-.5 2.4-.6 2.8l-1 4.6c-.4 1.9-.9 3.8-1.3 5.4h2.7l1.5-7.3c4.6-4.8 6.3-6.3 7.4-6.3.5 0 .8.3.8.8 0 .8-.5 2.7-.7 3.3l-1.5 5.3c-.3 1.2-.6 2.3-.6 3 0 1.2.7 1.7 1.8 1.7 2 0 3.4-2 4.6-4l-.4-.7c-.5.8-1.7 2.6-2.6 2.6-.3 0-.6-.2-.6-.7 0-.6.2-1.5.4-2.2l1.7-6.2c.5-1.7.7-2.8.7-3.4 0-1.2-.7-1.7-1.8-1.7-1.8 0-4.1 1.3-9 7h-.1l.6-2.8c.3-1.5.7-3.1 1-4.2-1.7.6-4.2 1.3-5.7 1.6z"/><path d="m400-317.5c0-1.4 1.1-2.4 2.4-2.4s2.4 1 2.4 2.4-1.1 2.4-2.4 2.4-2.4-1-2.4-2.4zm2.4 2c1.1 0 1.9-.8 1.9-2 0-1.1-.8-2-1.9-2s-1.9.8-1.9 2 .8 2 1.9 2zm-.5-.6h-.4v-2.7h1c.6 0 1 .2 1 .8 0 .5-.3.7-.7.8l.8 1.2h-.5l-.7-1.2h-.5zm.5-1.6c.4 0 .7 0 .7-.5 0-.3-.3-.4-.6-.4h-.6v.9z"/></g></svg>