<svg enable-background="new 0 0 712.8 113" viewBox="0 0 712.8 113" xmlns="http://www.w3.org/2000/svg"><path d="m98.9 46.6-46.6 26.3-49.9-28.1-2.4 1.3v20.4l52.3 29.4 46.6-26.2v10.8l-46.6 26.3-49.9-28.1-2.4 1.3v3.5l52.3 29.4 52.2-29.4v-20.4l-2.4-1.3-49.8 28-46.7-26.2v-10.8l46.7 26.2 52.2-29.4v-20.1l-2.6-1.5-49.6 27.9-44.3-24.8 44.3-24.9 36.4 20.5 3.2-1.8v-2.5l-39.6-22.3-52.3 29.4v3.2l52.3 29.4 46.6-26.3z" fill="#ee3d2c"/><path d="m202.2 96.2v-89.8h-13.8v33.6c0 .5-.3.9-.8 1.1s-1 0-1.3-.3c-4.7-5.5-12-8.6-20-8.6-17.1 0-30.5 14.4-30.5 32.8 0 9 3.1 17.3 8.8 23.4s13.4 9.4 21.7 9.4c7.9 0 15.2-3.3 20-9 .3-.4.9-.5 1.3-.4.5.2.8.6.8 1.1v6.7zm-32.9-10.9c-11 0-19.6-8.9-19.6-20.3s8.6-20.3 19.6-20.3 19.6 8.9 19.6 20.3-8.6 20.3-19.6 20.3z"/><path d="m276 96.2v-62.5h-13.7v6.3c0 .5-.3.9-.8 1.1s-1 0-1.3-.4c-4.6-5.5-11.8-8.6-20-8.6-17.1 0-30.5 14.4-30.5 32.8s13.4 32.8 30.5 32.8c7.9 0 15.2-3.3 20-9.1.3-.4.9-.5 1.3-.4.5.2.8.6.8 1.1v6.8h13.7zm-32.7-10.9c-11 0-19.6-8.9-19.6-20.3s8.6-20.3 19.6-20.3 19.6 8.9 19.6 20.3-8.6 20.3-19.6 20.3z"/><path d="m393.3 96.2v-62.5h-13.7v6.3c0 .5-.3.9-.8 1.1s-1 0-1.3-.4c-4.6-5.5-11.8-8.6-20-8.6-17.2 0-30.5 14.4-30.5 32.9s13.4 32.8 30.5 32.8c7.9 0 15.2-3.3 20-9.1.3-.4.9-.5 1.3-.4.5.2.8.6.8 1.1v6.8zm-32.7-10.9c-11 0-19.6-8.9-19.6-20.3s8.6-20.3 19.6-20.3 19.6 8.9 19.6 20.3-8.6 20.3-19.6 20.3z"/><path d="m418.4 88.8c.1 0 .3-.1.4-.1.3 0 .7.2.9.4 4.7 5.5 12 8.6 20 8.6 17.1 0 30.5-14.4 30.5-32.8 0-9-3.1-17.3-8.8-23.4s-13.4-9.4-21.7-9.4c-7.9 0-15.2 3.3-20 9-.3.4-.8.5-1.3.4-.5-.2-.8-.6-.8-1.1v-34h-13.8v89.8h13.8v-6.3c0-.5.3-.9.8-1.1zm-1.4-23.8c0-11.4 8.6-20.3 19.6-20.3s19.6 8.9 19.6 20.3-8.6 20.3-19.6 20.3-19.6-9-19.6-20.3z"/><path d="m510.1 46.5c1.3 0 2.5.1 3.3.3v-14.2c-.5-.1-1.4-.2-2.3-.2-7.2 0-13.8 3.7-17.3 9.6-.3.5-.8.7-1.3.5-.5-.1-.9-.6-.9-1.1v-7.7h-13.7v62.6h13.8v-27.6c0-13.7 7-22.2 18.4-22.2z"/><path d="m522.1 33.7h14v62.6h-14z"/><path d="m528.9 6.5c-4.7 0-8.5 3.8-8.5 8.5s3.8 8.5 8.5 8.5 8.5-3.8 8.5-8.5-3.8-8.5-8.5-8.5z"/><path d="m577.1 32.1c-19.2 0-33.1 13.8-33.1 32.9 0 9.3 3.3 17.6 9.2 23.6 6 6 14.4 9.3 23.8 9.3 7.8 0 13.8-1.5 25.2-9.9l-7.9-8.3c-5.6 3.7-10.8 5.5-15.9 5.5-11.6 0-20.3-8.7-20.3-20.2s8.7-20.2 20.3-20.2c5.5 0 10.6 1.8 15.7 5.5l8.8-8.3c-10.3-8.8-19.6-9.9-25.8-9.9z"/><path d="m626.5 68.7c.2-.2.5-.3.8-.3h.1c.3 0 .6.2.9.4l22.1 27.4h17l-28.6-34.6c-.4-.5-.4-1.2.1-1.6l26.3-26.3h-16.9l-22.7 22.8c-.3.3-.8.4-1.3.3-.4-.2-.7-.6-.7-1.1v-49.2h-13.9v89.8h13.8v-24.4c0-.3.1-.7.4-.9z"/><path d="m689.9 97.8c11.3 0 22.8-6.9 22.8-20 0-8.6-5.4-14.5-16.4-18.1l-7.5-2.5c-5.1-1.7-7.5-4.1-7.5-7.4 0-3.8 3.4-6.4 8.2-6.4 4.6 0 8.7 3 11.3 8.2l11.1-6c-4.1-8.4-12.6-13.6-22.4-13.6-12.4 0-21.4 8-21.4 18.9 0 8.7 5.2 14.5 15.9 17.9l7.7 2.5c5.4 1.7 7.7 3.9 7.7 7.4 0 5.3-4.9 7.2-9.1 7.2-5.6 0-10.6-3.6-13-9.5l-11.3 6c3.7 9.5 12.8 15.4 23.9 15.4z"/><path d="m314.4 97.2c4.4 0 8.3-.4 10.5-.7v-12c-1.8.2-5 .4-6.9.4-5.6 0-9.9-1-9.9-13.1v-25.7c0-.7.5-1.2 1.2-1.2h13.5v-11.3h-13.5c-.7 0-1.2-.5-1.2-1.2v-18h-13.8v18.1c0 .7-.5 1.2-1.2 1.2h-9.6v11.3h9.6c.7 0 1.2.5 1.2 1.2v29.1c0 21.9 14.6 21.9 20.1 21.9z"/></svg>