<svg fill="none" height="36" viewBox="0 0 54 51" width="36" xmlns="http://www.w3.org/2000/svg"><path clip-rule="evenodd" d="m28.2706 24.8867 5.4764 2.5618c.5588.2228 1.2291.1114 1.5647-.2227.1081-.1078.2275-.2154.3514-.3268.2661-.2397.5414-.4884.7661-.7872.4472-.4455.5589-1.1137.2234-1.5594l-2.5705-5.4578c.894-1.4479 1.5647-3.1187 2.012-4.7895l5.8118-2.005c.5586-.2227.894-.6682 1.0057-1.3366v-.7796-.77975c0-.55693-.4471-1.11389-1.0057-1.33664l-5.7001-2.1163c-.4473-1.67076-1.1175-3.34154-2.0117-4.78954l.5472-1.16167c11.0221 3.33074 18.9949 13.4865 18.9949 25.5694 0 4.6527-1.1931 9.0196-3.2882 12.8211-.134-.3134-.5601-.5197-.8829-.5197l-4.6057.2247c-.7863-1.0108-1.6848-1.9094-2.6957-2.6954l.2245-4.6047c0-.337-.2245-.7862-.5616-.8985-.4493-.2246-.7865-.337-1.2356-.4492-.3372-.1123-.7863 0-1.0111.2246l-3.0333 3.3693c-1.2356-.2247-2.5836-.2247-3.8192 0l-3.033-3.3693c-.2245-.3369-.6738-.4493-1.0109-.2246-.0986.0492-.1971.0769-.2862.1019-.1137.032-.2124.0597-.2755.1227-.2246.1122-.4493.2246-.5618.2246-.3368.1123-.5617.5615-.5617.8985l.2249 4.6047c-1.0114.786-2.0222 1.6846-2.6961 2.6954l-4.6056-.2247c-.3371 0-.7864.2247-.8989.5615-.2246.4493-.3368.7862-.4493 1.2355-.1125.3369 0 .7861.2247 1.0106l3.37 3.0324c-.2246 1.2355-.2246 2.5832 0 3.8186l-3.37 3.0323c-.161.1071-.2708.2656-.3168.4383-10.80709-3.482-18.5812-13.589-18.5812-25.4306 0-4.0754.91556-7.9316 2.55069-11.3807.46116 1.6758 1.13182 3.3466 2.02592 4.7945l-2.68228 5.5692c-.22343.557-.11171 1.2253.22343 1.5594.10812.1078.21626.2271.32797.3505.23535.2594.48701.5369.78994.7635.44684.4455 1.11752.5569 1.56436.2227l5.47667-2.5618c1.453.891 3.1291 1.5593 4.8056 2.0049l2.012 5.792c.2234.5569.6707.891 1.341 1.0024h.7824.7823c.559 0 1.1175-.4455 1.3414-1.0024l2.0115-5.792c1.9-.4456 3.4647-1.1139 4.9177-2.0049zm6.3312 25.8251c2.8822 0 5.2191-2.3046 5.2191-5.1472 0-2.8427-2.3369-5.1471-5.2191-5.1471s-5.2191 2.3044-5.2191 5.1471c0 2.8426 2.3369 5.1472 5.2191 5.1472zm-7.9273-40.5836c0 4.0453-3.2885 7.3247-7.3451 7.3247s-7.3452-3.2794-7.3452-7.3247c0-4.04532 3.2886-7.3247 7.3452-7.3247s7.3451 3.27938 7.3451 7.3247z" fill="#fff" fill-opacity=".87" fill-rule="evenodd"/></svg>