<svg fill="none" height="96" viewBox="0 0 268 96" width="268" xmlns="http://www.w3.org/2000/svg"><path d="m.75 24.5 26.5-24.5h39l39 19.5h99.5l52-14 10.5 62.5-42 7.5-42.5 20.5-30.5-20.5-131.5 8z" fill="#fff"/><g fill="#d68af4"><path d="m233.942 23.92c0-.7467.374-1.12 1.12-1.12h5.04c.747 0 1.12.3733 1.12 1.12v24.976c0 .7467-.373 1.12-1.12 1.12h-5.04c-.746 0-1.12-.3733-1.12-1.12zm-.952 34.104c0-1.2693.448-2.3333 1.344-3.192.896-.896 1.96-1.344 3.192-1.344 1.27 0 2.334.448 3.192 1.344.896.8587 1.344 1.9227 1.344 3.192s-.448 2.352-1.344 3.248c-.858.8587-1.922 1.288-3.192 1.288-1.232 0-2.296-.4293-3.192-1.288-.896-.896-1.344-1.9787-1.344-3.248z"/><path d="m209.313 52.704c.336-.1867.635-.28.896-.28.374 0 .728.224 1.064.672 1.046 1.4187 2.035 2.3707 2.968 2.856.971.448 1.998.672 3.08.672.822 0 1.475-.1867 1.96-.56.486-.4107.728-.952.728-1.624 0-.4107-.056-.784-.168-1.12s-.373-.6533-.784-.952c-.373-.2987-.914-.5787-1.624-.84-.709-.2987-1.642-.616-2.8-.952-2.314-.6347-4.181-1.5867-5.6-2.856-1.418-1.2693-2.128-2.912-2.128-4.928 0-1.2693.28-2.3893.84-3.36s1.288-1.7733 2.184-2.408 1.886-1.1013 2.968-1.4c1.083-.336 2.147-.504 3.192-.504 2.203 0 4.032.3173 5.488.952 1.494.5973 2.894 1.4187 4.2 2.464.187.1493.318.2987.392.448.075.112.112.28.112.504s-.112.4853-.336.784l-2.296 2.856c-.298.336-.616.504-.952.504-.298 0-.597-.112-.896-.336-.97-.7467-1.885-1.3253-2.744-1.736-.858-.4107-1.829-.616-2.912-.616-.672 0-1.269.168-1.792.504-.485.2987-.728.7093-.728 1.232 0 .2987.056.5787.168.84.15.224.392.448.728.672.374.224.878.4667 1.512.728.672.224 1.512.4667 2.52.728 3.024.784 5.208 1.8293 6.552 3.136 1.382 1.2693 2.072 3.0613 2.072 5.376 0 1.1573-.224 2.24-.672 3.248s-1.12 1.904-2.016 2.688c-.858.7467-1.922 1.344-3.192 1.792-1.232.448-2.65.672-4.256.672-2.277 0-4.442-.504-6.496-1.512-2.053-1.008-3.733-2.52-5.04-4.536-.149-.2613-.224-.5227-.224-.784 0-.4853.243-.8773.728-1.176z"/><path d="m175.245 36.8c0-.7467.374-1.12 1.12-1.12h4.088c.336 0 .579.0747.728.224.187.112.318.2987.392.56l.56 1.848c.896-.9707 1.998-1.736 3.304-2.296 1.307-.5973 2.856-.896 4.648-.896 1.68 0 3.248.2987 4.704.896 1.456.56 2.707 1.4187 3.752 2.576 1.083 1.12 1.923 2.5387 2.52 4.256.635 1.7173.952 3.7147.952 5.992 0 2.24-.336 4.2187-1.008 5.936-.672 1.68-1.605 3.0987-2.8 4.256-1.157 1.1573-2.538 2.0347-4.144 2.632-1.568.5973-3.285.896-5.152.896-1.53 0-2.856-.2053-3.976-.616-1.082-.4107-1.997-.8773-2.744-1.4v13.216c0 .7467-.373 1.12-1.12 1.12h-4.704c-.746 0-1.12-.3733-1.12-1.12zm6.944 14.392c0 .9707.15 1.736.448 2.296.336.5227.747 1.008 1.232 1.456.411.4107 1.008.7653 1.792 1.064.822.2613 1.848.392 3.08.392 1.792 0 3.248-.672 4.368-2.016 1.158-1.3813 1.736-3.248 1.736-5.6 0-2.2773-.522-4.088-1.568-5.432-1.045-1.3813-2.576-2.072-4.592-2.072-.933 0-1.829.1867-2.688.56-.858.3733-1.568.896-2.128 1.568-.522.5973-.933 1.2507-1.232 1.96-.298.672-.448 1.5493-.448 2.632z"/><path d="m155.739 62.56c-1.904 0-3.715-.28-5.432-.84-1.68-.56-3.155-1.4187-4.424-2.576-1.27-1.1573-2.278-2.576-3.024-4.256-.747-1.7173-1.12-3.7333-1.12-6.048 0-2.128.354-4.032 1.064-5.712.746-1.7173 1.736-3.1547 2.968-4.312 1.269-1.1947 2.744-2.1093 4.424-2.744 1.717-.6347 3.565-.952 5.544-.952 1.941 0 3.77.3173 5.488.952 1.717.6347 3.192 1.5493 4.424 2.744 1.269 1.1573 2.258 2.5947 2.968 4.312.746 1.68 1.12 3.584 1.12 5.712 0 2.3147-.374 4.3307-1.12 6.048-.747 1.68-1.755 3.0987-3.024 4.256-1.27 1.1573-2.763 2.016-4.48 2.576-1.68.56-3.472.84-5.376.84zm0-6.16c2.128 0 3.789-.6907 4.984-2.072 1.232-1.3813 1.848-3.192 1.848-5.432 0-1.232-.187-2.3147-.56-3.248-.374-.9333-.878-1.7173-1.512-2.352-.598-.672-1.307-1.176-2.128-1.512-.822-.336-1.699-.504-2.632-.504-.934 0-1.811.168-2.632.504-.822.336-1.55.84-2.184 1.512-.598.6347-1.083 1.4187-1.456 2.352-.374.9333-.56 2.016-.56 3.248 0 2.24.597 4.0507 1.792 5.432 1.232 1.3813 2.912 2.072 5.04 2.072z"/><path d="m123.692 62.56c-1.904 0-3.715-.28-5.432-.84-1.68-.56-3.155-1.4187-4.424-2.576-1.27-1.1573-2.278-2.576-3.024-4.256-.747-1.7173-1.12-3.7333-1.12-6.048 0-2.128.354-4.032 1.064-5.712.746-1.7173 1.736-3.1547 2.968-4.312 1.269-1.1947 2.744-2.1093 4.424-2.744 1.717-.6347 3.565-.952 5.544-.952 1.941 0 3.77.3173 5.488.952 1.717.6347 3.192 1.5493 4.424 2.744 1.269 1.1573 2.258 2.5947 2.968 4.312.746 1.68 1.12 3.584 1.12 5.712 0 2.3147-.374 4.3307-1.12 6.048-.747 1.68-1.755 3.0987-3.024 4.256-1.27 1.1573-2.763 2.016-4.48 2.576-1.68.56-3.472.84-5.376.84zm0-6.16c2.128 0 3.789-.6907 4.984-2.072 1.232-1.3813 1.848-3.192 1.848-5.432 0-1.232-.187-2.3147-.56-3.248-.374-.9333-.878-1.7173-1.512-2.352-.598-.672-1.307-1.176-2.128-1.512-.822-.336-1.699-.504-2.632-.504-.934 0-1.811.168-2.632.504-.822.336-1.55.84-2.184 1.512-.598.6347-1.083 1.4187-1.456 2.352-.374.9333-.56 2.016-.56 3.248 0 2.24.597 4.0507 1.792 5.432 1.232 1.3813 2.912 2.072 5.04 2.072z"/><path d="m78.8313 22.8c0-.7467.3733-1.12 1.12-1.12h4.704c.7467 0 1.12.3733 1.12 1.12v16.24c1.3067-1.232 2.7627-2.184 4.368-2.856 1.6053-.7093 3.3227-1.064 5.152-1.064 2.8373 0 5.0217.7093 6.5517 2.128 1.568 1.4187 2.352 3.2853 2.352 5.6v18.032c0 .7467-.373 1.12-1.12 1.12h-4.7037c-.7467 0-1.12-.3733-1.12-1.12v-15.736c0-2.576-1.3067-3.864-3.92-3.864-1.232 0-2.352.3547-3.36 1.064-.9707.672-1.7733 1.4933-2.408 2.464-.5973.9333-1.0453 1.8667-1.344 2.8-.2987.896-.448 2.1093-.448 3.64v9.632c0 .7467-.3733 1.12-1.12 1.12h-4.704c-.7467 0-1.12-.3733-1.12-1.12z"/><path d="m23.3555 23.92c0-.7467.3733-1.12 1.12-1.12h6.16c.3733 0 .6346.0933.784.28.1493.1493.2613.4293.336.84l6.104 25.256 7.28-25.256c.112-.3733.2613-.6533.448-.84.224-.1867.5413-.28.952-.28h4.816c.4106 0 .7093.0933.896.28.224.1867.392.4667.504.84l7.28 25.256 6.104-25.256c.0746-.4107.1866-.6907.336-.84.1493-.1867.4106-.28.784-.28h6.16c.7466 0 1.12.3733 1.12 1.12l-10.08 36.96c-.224.7467-.7094 1.12-1.456 1.12h-5.432c-.7094 0-1.176-.3733-1.4-1.12l-7.224-25.2-7.224 25.2c-.224.7467-.6907 1.12-1.4 1.12h-5.432c-.7467 0-1.232-.3733-1.456-1.12z"/></g></svg>