<svg fill="none" height="72" viewBox="0 0 136 72" width="136" xmlns="http://www.w3.org/2000/svg" xmlns:xlink="http://www.w3.org/1999/xlink"><filter id="a" color-interpolation-filters="sRGB" filterUnits="userSpaceOnUse" height="71.5" width="135.5" x=".25" y="0"><feFlood flood-opacity="0" result="BackgroundImageFix"/><feColorMatrix in="SourceAlpha" result="hardAlpha" type="matrix" values="0 0 0 0 0 0 0 0 0 0 0 0 0 0 0 0 0 0 127 0"/><feOffset dy="4"/><feGaussianBlur stdDeviation="2"/><feComposite in2="hardAlpha" operator="out"/><feColorMatrix type="matrix" values="0 0 0 0 0 0 0 0 0 0 0 0 0 0 0 0 0 0 0.1 0"/><feBlend in2="BackgroundImageFix" mode="normal" result="effect1_dropShadow_709_1338"/><feBlend in="SourceGraphic" in2="effect1_dropShadow_709_1338" mode="normal" result="shape"/></filter><g filter="url(#a)"><path d="m4.25 14.5 26.5-14.5 42 14.5 48.5-10.5 10.5 26.5-8 26.5-105 6.5z" fill="#fff"/></g><path d="m102.808 31.2201h-3.4081c-.64 0-.96-.32-.96-.96v-3.36c0-.64.32-.96.96-.96h3.4081v-6.816c0-.64.32-.96.96-.96h4.032c.64 0 .96.32.96.96v6.816h4.896c.64 0 .96.32.96.96v3.36c0 .64-.32.96-.96.96h-4.896v9.408c0 2.048.848 3.072 2.544 3.072.48 0 .912-.032 1.296-.096.416-.096.752-.144 1.008-.144.32 0 .48.176.48.528v4.032c0 .256-.048.416-.144.48-.096.096-.288.176-.576.24-.448.064-.976.112-1.584.144-.576.064-1.168.096-1.776.096-2.176 0-3.92-.496-5.232-1.488s-1.968-2.592-1.968-4.8z" fill="#75dab6"/><path d="m80.7778 40.532c.288-.16.544-.24.768-.24.32 0 .624.192.912.576.896 1.216 1.744 2.032 2.544 2.448.832.384 1.712.576 2.64.576.704 0 1.264-.16 1.68-.48.416-.352.624-.816.624-1.392 0-.352-.048-.672-.144-.96s-.32-.56-.672-.816c-.32-.256-.784-.496-1.392-.72-.608-.256-1.408-.528-2.4-.816-1.984-.544-3.584-1.36-4.8-2.448s-1.824-2.496-1.824-4.224c0-1.088.24-2.048.72-2.88s1.104-1.52 1.872-2.064 1.616-.944 2.544-1.2c.928-.288 1.84-.432 2.736-.432 1.888 0 3.456.272 4.704.816 1.28.512 2.48 1.216 3.6 2.112.16.128.272.256.336.384.064.096.096.24.096.432s-.096.416-.288.672l-1.968 2.448c-.256.288-.528.432-.816.432-.256 0-.512-.096-.768-.288-.832-.64-1.616-1.136-2.352-1.488s-1.568-.528-2.496-.528c-.576 0-1.088.144-1.536.432-.416.256-.624.608-.624 1.056 0 .256.048.496.144.72.128.192.336.384.624.576.32.192.752.4 1.296.624.576.192 1.296.4 2.16.624 2.592.672 4.464 1.568 5.616 2.688 1.184 1.088 1.776 2.624 1.776 4.608 0 .992-.192 1.92-.576 2.784s-.96 1.632-1.728 2.304c-.736.64-1.648 1.152-2.736 1.536-1.056.384-2.272.576-3.648.576-1.952 0-3.808-.432-5.568-1.296s-3.2-2.16-4.32-3.888c-.128-.224-.192-.448-.192-.672 0-.416.208-.752.624-1.008z" fill="#6f8df8"/><path d="m67.5317 46.58c-.832.704-1.76 1.28-2.784 1.728-.992.448-2.304.672-3.936.672-1.504 0-2.944-.24-4.32-.72s-2.592-1.2-3.648-2.16c-1.056-.992-1.904-2.224-2.544-3.696-.608-1.472-.912-3.2-.912-5.184 0-1.856.304-3.504.912-4.944.64-1.472 1.488-2.704 2.544-3.696 1.056-1.024 2.272-1.792 3.648-2.304 1.408-.544 2.896-.816 4.464-.816 1.536 0 2.8.208 3.792.624.992.384 1.904.944 2.736 1.68v-.864c0-.64.32-.96.96-.96h4.032c.64 0 .96.32.96.96v20.64c0 .64-.32.96-.96.96h-3.408c-.32 0-.576-.08-.768-.24s-.368-.496-.528-1.008zm-.048-10.8c0-.736-.096-1.376-.288-1.92s-.544-1.056-1.056-1.536c-.544-.512-1.168-.896-1.872-1.152-.704-.288-1.536-.432-2.496-.432-.832 0-1.632.16-2.4.48-.736.288-1.392.704-1.968 1.248s-1.04 1.232-1.392 2.064c-.32.8-.48 1.696-.48 2.688 0 1.024.16 1.936.48 2.736s.752 1.472 1.296 2.016c.576.544 1.232.976 1.968 1.296.768.288 1.568.432 2.4.432.992 0 1.888-.176 2.688-.528s1.456-.848 1.968-1.488c.416-.544.704-1.056.864-1.536.192-.48.288-1.104.288-1.872z" fill="#d68af4"/><path d="m23.186 15.8599c0-.64.32-.96.96-.96h4.32c.64 0 .96.32.96.96v26.784h16.08c.64 0 .96.32.96.96v3.936c0 .64-.32.96-.96.96h-21.36c-.64 0-.96-.32-.96-.96z" fill="#f277ba"/></svg>