<svg fill="none" height="92" viewBox="0 0 196 92" width="196" xmlns="http://www.w3.org/2000/svg" xmlns:xlink="http://www.w3.org/1999/xlink"><filter id="a" color-interpolation-filters="sRGB" filterUnits="userSpaceOnUse" height="82.9436" width="195.017" x=".967651" y="8.1272"><feFlood flood-opacity="0" result="BackgroundImageFix"/><feColorMatrix in="SourceAlpha" result="hardAlpha" type="matrix" values="0 0 0 0 0 0 0 0 0 0 0 0 0 0 0 0 0 0 127 0"/><feOffset dy="4"/><feGaussianBlur stdDeviation="2"/><feComposite in2="hardAlpha" operator="out"/><feColorMatrix type="matrix" values="0 0 0 0 0 0 0 0 0 0 0 0 0 0 0 0 0 0 0.1 0"/><feBlend in2="BackgroundImageFix" mode="normal" result="effect1_dropShadow_709_1359"/><feBlend in="SourceGraphic" in2="effect1_dropShadow_709_1359" mode="normal" result="shape"/></filter><g filter="url(#a)"><path d="m29.3247 14.445-24.35708 14.1768 3.70412 42.3383 34.69856 6.5005 39.1379 5.6103 43.6518-17.3706 56.18-.3979 9.644-27.445-10.129-29.73028-29.949 7.63918-82.1857 7.1904z" fill="#fff"/></g><path d="m165.127 33.9032-3.395.297c-.638.0558-.985-.2351-1.04-.8726l-.293-3.3473c-.056-.6375.235-.9842.872-1.04l3.395-.297-.594-6.7901c-.055-.6375.235-.9842.873-1.04l4.017-.3514c.637-.0558.984.2351 1.04.8727l.594 6.7901 4.877-.4268c.638-.0557.984.2351 1.04.8727l.293 3.3472c.056.6376-.235.9843-.873 1.04l-4.877.4268.82 9.3722c.178 2.0402 1.112 2.9864 2.802 2.8385.478-.0418.906-.1113 1.283-.2085.406-.1319.736-.209.991-.2313.319-.0279.494.1334.524.4841l.352 4.0167c.022.255-.012.4186-.102.4907-.087.104-.271.2004-.553.2893-.44.1028-.962.1966-1.565.2815-.568.1139-1.155.1974-1.761.2504-2.168.1897-3.948-.1525-5.342-1.0263-1.393-.8739-2.186-2.4106-2.379-4.6102z" fill="#d68af4"/><path d="m143.992 45.0997c.273-.1845.521-.2865.744-.3061.319-.0278.638.1369.959.4944.998 1.1332 1.914 1.8722 2.747 2.2169.863.3101 1.756.4246 2.681.3437.701-.0613 1.245-.2695 1.631-.6246.384-.3869.551-.8672.501-1.441-.031-.3507-.107-.6653-.227-.9438-.121-.2786-.368-.53-.741-.7544-.341-.2271-.824-.4257-1.45-.5959-.628-.202-1.448-.4033-2.462-.6037-2.023-.369-3.688-1.0425-4.995-2.0204-1.306-.9778-2.034-2.3275-2.185-4.0489-.095-1.0839.061-2.0611.466-2.9318.406-.8707.968-1.6104 1.685-2.2193.718-.6089 1.528-1.0813 2.43-1.4172.9-.3678 1.796-.5907 2.688-.6688 1.881-.1645 3.467-.0302 4.757.4029 1.32.3985 2.577.9953 3.771 1.7902.17.1136.293.2314.368.3533.072.09.116.2307.133.422.017.1912-.059.4228-.228.6945l-1.747 2.6102c-.23.3092-.489.4764-.776.5015-.255.0223-.518-.051-.79-.22-.884-.565-1.709-.9908-2.472-1.2773-.764-.2865-1.609-.3893-2.533-.3085-.574.0502-1.071.2383-1.493.5643-.392.2912-.568.66-.529 1.1063.022.2551.091.49.206.7047.144.1802.368.3533.672.5195.335.1633.784.3329 1.345.5086.591.1411 1.326.2856 2.207.4334 2.64.4435 4.583 1.173 5.828 2.1883 1.275.9807 1.998 2.4592 2.171 4.4357.087.9882-.024 1.9294-.331 2.8236s-.814 1.7095-1.52 2.4458c-.678.7017-1.542 1.2913-2.592 1.7686-1.019.4746-2.213.7719-3.584.8918-1.945.1701-3.831-.0985-5.66-.8058-1.828-.7073-3.376-1.8729-4.642-3.4967-.147-.212-.231-.4295-.25-.6527-.036-.4144.142-.7673.534-1.0585z" fill="#f277ba"/><path d="m136.382 48.8491c.174.1455.269.3138.286.5051.016.1913-.063.3909-.237.5989-.698.832-1.39 1.5511-2.076 2.1572-.657.5714-1.368 1.0673-2.134 1.4877-.735.4175-1.541.7451-2.42.9826s-1.86.4036-2.944.4984c-1.562.1367-3.082.0127-4.562-.3718-1.447-.3873-2.772-1.0263-3.974-1.9169-1.17-.8934-2.154-2.044-2.952-3.4519-.766-1.4106-1.231-3.0563-1.395-4.9371-.157-1.7852.021-3.4229.533-4.9132s1.25-2.7916 2.213-3.9037c.994-1.1149 2.169-2.0047 3.524-2.6694 1.353-.6965 2.81-1.1131 4.372-1.2497 1.945-.1702 3.665.0327 5.161.6085 1.493.5439 2.75 1.3333 3.772 2.3682 1.052 1.0002 1.86 2.1661 2.427 3.4979.563 1.2998.905 2.6351 1.025 4.0059l.125 1.4345c.056.6375-.235.9842-.873 1.04l-16.257 1.4224c.545 1.462 1.409 2.5267 2.592 3.1942 1.18.6356 2.535.8864 4.065.7526 1.275-.1116 2.352-.4628 3.232-1.0538.912-.5937 1.7-1.3211 2.363-2.1822.198-.3064.425-.4708.68-.4931.191-.0167.408.0767.651.2803zm-5.537-8.7667c-.488-1.1779-1.241-2.0757-2.259-2.6934-1.018-.6176-2.212-.8665-3.583-.7465-1.466.1282-2.66.6182-3.581 1.4697-.922.8515-1.542 1.8374-1.862 2.9575z" fill="#d68af4"/><path d="m91.6356 60.5698c.1745-.208.3733-.3218.5965-.3413.1913-.0167.3909.0622.5989.2367.5228.4682 1.0255.89 1.508 1.2654.4826.3754.9914.6842 1.5266.9265.5351.2422 1.1285.4152 1.78.5188s1.4076.1178 2.2683.0425c1.7531-.1534 2.9681-.7736 3.6441-1.8607.678-1.0551.946-2.3956.804-4.0214l-.167-1.9127c-.329.2857-.676.5409-1.041.7657-.366.2247-.783.4217-1.25.5911-.432.1984-.948.356-1.548.4728-.5976.1486-1.2948.2578-2.0917.3275-1.4983.1311-2.9551.0015-4.3705-.3886s-2.6764-1.0347-3.7829-1.9336c-1.1066-.899-2.0255-2.0393-2.7567-3.4208-.734-1.4134-1.1846-3.0765-1.352-4.9891-.1673-1.9127.0037-3.6302.5129-5.1524.5412-1.5249 1.2959-2.8116 2.2642-3.86.9656-1.0802 2.0955-1.934 3.3897-2.5612 1.2943-.6271 2.6268-1.0007 3.9976-1.1206 1.4664-.1283 2.6452-.0548 3.5366.2206.9238.2725 1.8458.7218 2.7678 1.3478l-.058-.6694c-.056-.6376.235-.9842.872-1.04l4.017-.3514c.638-.0558.984.2351 1.04.8727l1.899 21.709c.17 1.9446.046 3.6419-.373 5.092-.385 1.4791-1.015 2.7228-1.89 3.7309-.876 1.0081-1.963 1.7939-3.263 2.3573-1.3.5635-2.747.9149-4.341 1.0544-1.3707.1199-2.6091.0998-3.7153-.0604-1.1034-.1284-2.1036-.3621-3.0005-.7012-.8623-.31-1.6519-.7067-2.3688-1.1901-.714-.4515-1.3817-.9231-2.0029-1.4148-.2773-.2327-.423-.4288-.4369-.5881-.0168-.1913.0767-.4083.2803-.651zm11.5884-16.2398c-.069-.797-.19-1.4449-.363-1.9438-.172-.4989-.539-1.0289-1.102-1.5899-.494-.5029-1.105-.8831-1.8347-1.1405-.732-.2893-1.5761-.3921-2.5325-.3085-.8607.0753-1.6264.319-2.297.731-.6734.3802-1.2546.8968-1.7436 1.5499-.4598.6184-.7983 1.3387-1.0155 2.1607-.22.7902-.2923 1.6156-.217 2.4763.1813 2.0721.864 3.6346 2.0483 4.6874 1.1815 1.0209 2.6329 1.456 4.3544 1.3054.8925-.0781 1.6316-.2552 2.2176-.5313.616-.3108 1.172-.745 1.669-1.3024.527-.5922.845-1.1821.954-1.7699.109-.5877.136-1.2004.08-1.8379z" fill="#75dab6"/><path d="m63.2907 63.0495c.1746-.208.3734-.3217.5965-.3413.1913-.0167.3909.0622.599.2367.5227.4683 1.0254.89 1.508 1.2654.4825.3754.9914.6842 1.5265.9265.5352.2423 1.1285.4152 1.78.5188s1.4076.1178 2.2684.0425c1.7533-.1534 2.9678-.7736 3.6437-1.8606.6786-1.0552.9468-2.3957.8045-4.0215l-.1673-1.9127c-.3284.2857-.6754.541-1.0412.7657s-.7823.4218-1.2493.5911c-.4323.1985-.9486.3561-1.5487.4728-.5973.1486-1.2944.2578-2.0914.3275-1.4983.1311-2.9551.0016-4.3705-.3885-1.4154-.3902-2.6763-1.0347-3.7829-1.9337s-2.0254-2.0392-2.7566-3.4208c-.734-1.4134-1.1847-3.0764-1.352-4.9891s.0036-3.6301.5129-5.1523c.5411-1.525 1.2959-2.8117 2.2642-3.86.9655-1.0803 2.0954-1.934 3.3897-2.5612 1.2942-.6272 2.6267-1.0008 3.9975-1.1207 1.4664-.1283 2.6453-.0548 3.5367.2206.9233.2726 1.8459.7219 2.768 1.3479l-.0586-.6695c-.0558-.6375.2351-.9842.8727-1.04l4.0167-.3514c.6375-.0558.9842.2351 1.04.8727l1.8993 21.7091c.1701 1.9445.0456 3.6418-.3736 5.0919-.3846 1.4791-1.0146 2.7228-1.8901 3.7309-.8754 1.0082-1.9631 1.794-3.2629 2.3574-1.2999.5634-2.7467.9149-4.3407 1.0543-1.3707.1199-2.6092.0998-3.7154-.0604-1.1033-.1283-2.1035-.362-3.0005-.7012-.8623-.31-1.6519-.7067-2.3687-1.19-.7141-.4515-1.3817-.9231-2.003-1.4149-.2773-.2327-.4229-.4287-.4369-.5881-.0167-.1913.0767-.4083.2804-.6509zm11.5887-16.2398c-.0697-.797-.1906-1.4449-.3628-1.9438-.1721-.4989-.5397-1.0288-1.1027-1.5899-.4937-.5029-1.1052-.883-1.8344-1.1405-.732-.2893-1.5762-.3921-2.5325-.3084-.8607.0753-1.6264.3189-2.2971.731-.6734.3801-1.2546.8967-1.7435 1.5498-.4599.6184-.7984 1.3387-1.0156 2.1607-.2199.7902-.2923 1.6157-.217 2.4764.1813 2.0721.8641 3.6345 2.0484 4.6873 1.1814 1.0209 2.6329 1.4561 4.3543 1.3055.8926-.0781 1.632-.2552 2.2181-.5314.6153-.3108 1.1716-.7449 1.6689-1.3024.5264-.5921.8442-1.1821.9534-1.7698.1091-.5878.1358-1.2004.0801-1.838z" fill="#d68af4"/><path d="m46.0945 39.9804c-.0558-.6375.2351-.9842.8727-1.04l4.0166-.3514c.6376-.0558.9843.2351 1.04.8727l1.7989 20.5615c.0558.6375-.2351.9842-.8726 1.04l-4.0167.3514c-.6376.0558-.9842-.2351-1.04-.8727zm-1.4512-7.7751c-.092-1.0519.182-1.9593.8219-2.722.6691-.7973 1.5296-1.242 2.5816-1.334 1.052-.0921 1.9607.1978 2.7261.8697.7946.6372 1.2379 1.4817 1.3299 2.5337.0921 1.052-.1964 1.9767-.8655 2.774-.64.7627-1.4859 1.19-2.5379 1.2821-1.052.092-1.9753-.1806-2.7698-.8177-.7655-.6719-1.1942-1.5338-1.2863-2.5858z" fill="#6f8df8"/><path d="m16.9395 30.4854c-.0558-.6376.2351-.9842.8727-1.04l4.0166-.3514c.6376-.0558.9843.2351 1.0401.8726l1.2257 14.0105c.7715-1.0954 1.7828-2.019 3.0341-2.7709 1.2484-.7838 2.6536-1.2441 4.2157-1.3807 3.2515-.2845 5.8273.5181 7.7272 2.4077s3.0103 4.6674 3.331 8.3334c.1478 1.6895.0308 3.2898-.3509 4.8008-.3846 1.4792-1.009 2.7866-1.8733 3.9222-.8643 1.1357-1.9554 2.0663-3.2731 2.7919-1.2887.691-2.7778 1.1103-4.4674 1.2581-1.4026.1228-2.6598.0721-3.7716-.1518-1.1117-.224-2.1071-.5866-2.9861-1.0879l.0334.3825c.0558.6376-.2351.9843-.8727 1.0401l-4.0166.3514c-.6376.0558-.9843-.2351-1.04-.8727zm8.1048 24.3463c.0641.7332.2231 1.2653.4769 1.5965.2538.3311.5672.6089.9402.8332.6794.4224 1.426.6944 2.2397.8159.8136.1216 1.5552.153 2.2247.0945 1.9445-.1702 3.3565-.9201 4.236-2.2498.9113-1.3325 1.2861-2.9232 1.1244-4.7721-.1813-2.0721-.8294-3.6055-1.9444-4.6001-1.1177-1.0265-2.4416-1.4728-3.9718-1.3389-1.2113.106-2.2195.5154-3.0244 1.2283-.7759.6782-1.33 1.3209-1.6623 1.9282-.3296.6391-.5794 1.2713-.7496 1.8965-.1382.6224-.1753 1.3003-.1112 2.0335z" fill="#f277ba"/></svg>