<svg fill="none" height="82" viewBox="0 0 197 82" width="197" xmlns="http://www.w3.org/2000/svg" xmlns:xlink="http://www.w3.org/1999/xlink"><filter id="a" color-interpolation-filters="sRGB" filterUnits="userSpaceOnUse" height="75.0732" width="195.81" x=".91333" y="6.24609"><feFlood flood-opacity="0" result="BackgroundImageFix"/><feColorMatrix in="SourceAlpha" result="hardAlpha" type="matrix" values="0 0 0 0 0 0 0 0 0 0 0 0 0 0 0 0 0 0 127 0"/><feOffset dy="4"/><feGaussianBlur stdDeviation="2"/><feComposite in2="hardAlpha" operator="out"/><feColorMatrix type="matrix" values="0 0 0 0 0 0 0 0 0 0 0 0 0 0 0 0 0 0 0.1 0"/><feBlend in2="BackgroundImageFix" mode="normal" result="effect1_dropShadow_709_1686"/><feBlend in="SourceGraphic" in2="effect1_dropShadow_709_1686" mode="normal" result="shape"/></filter><g filter="url(#a)"><path d="m4.91335 23.4816 25.57805-16.11715 33.7874 6.68325 48.8022-7.8016 34.839 5.219 36.006-4.44952 8.797 30.07862-10.746 30.6636-89.2695-8.1902-36.0019 13.7519-43.6242-11.5295z" fill="#fff"/></g><path d="m165.935 17.9985c.023-.6396.354-.9483.993-.9259l4.03.1407c.64.0223.948.3533.926.9929l-.928 26.5758c-.03.8635.124 1.4932.462 1.8893.34.3641.781.5556 1.325.5746s.962-.0465 1.256-.1963c.325-.1488.616-.2187.871-.2097.384.0134.569.2279.554.6437l-.13 3.7417c-.008.2239-.078.3815-.209.473-.099.0926-.23.1681-.392.2265-.648.2015-1.292.3071-1.932.3167-.642.0417-1.315.0502-2.019.0256-.607-.0212-1.259-.156-1.955-.4045-.696-.2164-1.341-.5591-1.933-1.0281-.559-.4998-1.033-1.1247-1.423-1.8748-.357-.7809-.517-1.715-.479-2.8024z" fill="#ffb0db"/><path d="m153.464 49.2618c-.856.6746-1.804 1.2178-2.843 1.6298-1.007.4131-2.326.5912-3.957.5342-1.503-.0524-2.934-.3426-4.292-.8703s-2.548-1.2897-3.57-2.286c-1.021-1.0282-1.826-2.2891-2.414-3.7825-.556-1.4923-.8-3.2299-.73-5.2127.064-1.8548.426-3.4912 1.084-4.9091.691-1.4488 1.581-2.6505 2.671-3.605 1.091-.9865 2.333-1.7116 3.726-2.1753 1.426-.4945 2.923-.7144 4.49-.6597 1.535.0536 2.791.3056 3.768.756.978.4183 1.87 1.0098 2.676 1.7744l.03-.8635c.022-.6396.353-.9482.993-.9259l4.029.1408c.64.0223.949.3533.926.9929l-.72 20.6274c-.022.6396-.353.9482-.993.9259l-3.406-.1189c-.32-.0112-.573-.1001-.759-.2667s-.351-.5085-.493-1.0258zm.329-10.7951c.026-.7355-.048-1.3785-.221-1.9288-.173-.5504-.507-1.0744-1.002-1.572-.525-.5306-1.136-.9362-1.83-1.2166-.694-.3124-1.52-.4853-2.48-.5188-.831-.0291-1.636.1029-2.415.3959-.746.2622-1.416.655-2.01 1.1786-.595.5235-1.083 1.1949-1.464 2.0141-.347.7884-.538 1.6782-.573 2.6696-.036 1.0234.092 1.9404.384 2.7511s.7 1.4974 1.225 2.06c.557.5638 1.197 1.0184 1.922 1.3639.757.3147 1.552.4865 2.383.5155.991.0346 1.893-.11 2.705-.4338.812-.3239 1.485-.7967 2.019-1.4185.434-.5291.74-1.0307.917-1.5049.208-.473.326-1.0932.353-1.8608z" fill="#f277ba"/><path d="m125.414 28.5908c.022-.6396.353-.9482.993-.9259l4.029.1407c.64.0223.949.3533.926.9929l-.72 20.6275c-.022.6396-.353.9482-.993.9259l-4.03-.1407c-.639-.0224-.948-.3534-.925-.993zm-.493-7.894c.037-1.0554.419-1.9225 1.148-2.6015.761-.7099 1.669-1.0464 2.724-1.0096 1.056.0369 1.922.4354 2.6 1.1955.711.7293 1.048 1.6216 1.012 2.6769-.037 1.0554-.436 1.938-1.198 2.6479-.728.679-1.619 1-2.675.9632-1.055-.0369-1.938-.4199-2.649-1.1492-.678-.7601-.999-1.6678-.962-2.7232z" fill="#d68af4"/><path d="m120.622 45.2815c.154.1655.228.3442.221.5361s-.109.3804-.308.5656c-1.526 1.5157-3.035 2.5516-4.527 3.1079-1.491.5243-3.18.7534-5.067.6876-1.631-.057-3.174-.351-4.628-.8821-1.454-.5631-2.739-1.3444-3.857-2.344-1.085-1.0305-1.937-2.293-2.5572-3.7876-.6202-1.4945-.8963-3.2172-.8281-5.168.0614-1.7589.437-3.3468 1.1273-4.7636.723-1.4476 1.662-2.6636 2.817-3.6479 1.187-.9832 2.541-1.7204 4.063-2.2115 1.555-.5221 3.196-.7529 4.923-.6926 2.047.0714 3.762.4675 5.146 1.1883 1.417.6898 2.557 1.5141 3.42 2.4728.247.2648.366.5091.359.733-.007.1919-.11.3964-.31.6136l-2.453 2.8441c-.198.1852-.394.2744-.586.2677-.223-.0078-.428-.111-.613-.3096-.803-.8605-1.597-1.4806-2.385-1.8603-.754-.4106-1.706-.636-2.858-.6762-.863-.0302-1.684.1013-2.463.3943-.746.2621-1.416.6709-2.012 1.2265-.595.5236-1.082 1.1949-1.463 2.0142-.348.7883-.539 1.6782-.574 2.6696-.033.9594.096 1.8444.388 2.6551s.699 1.5134 1.223 2.108c.557.5638 1.213 1.0189 1.97 1.3656.757.3146 1.567.487 2.431.5171 1.023.0358 1.989-.1226 2.898-.4751.942-.3834 1.845-1.0083 2.707-1.8747.199-.1852.394-.2744.586-.2677s.381.1093.566.3079z" fill="#ffb0db"/><path d="m93.8337 44.2012c.1543.1655.2282.3442.2215.5361s-.1094.3804-.308.5656c-.7943.7407-1.5687 1.3701-2.3233 1.8881-.7214.4871-1.488.8926-2.2998 1.2164-.7798.325-1.6203.5518-2.5213.6805-.9011.1286-1.8952.1739-2.9826.136-1.567-.0548-3.0612-.3631-4.4824-.925-1.3893-.5609-2.6263-1.3565-3.711-2.387-1.0527-1.0294-1.8892-2.2913-2.5094-3.7859-.5882-1.4934-.8494-3.1836-.7835-5.0704.0625-1.7909.4387-3.3948 1.1286-4.8116s1.5803-2.6184 2.6714-3.6049c1.1231-.9854 2.3977-1.7254 3.8238-2.2199 1.4273-.5266 2.9244-.7624 4.4915-.7077 1.9508.0681 3.6335.4791 5.048 1.2329 1.4157.7218 2.5677 1.6586 3.456 2.8103.9215 1.1209 1.5821 2.3767 1.9818 3.7675.4008 1.3588.5772 2.7258.5292 4.101l-.0503 1.4391c-.0223.6396-.3533.9482-.9929.9259l-16.3101-.5696c.3633 1.5176 1.0912 2.6797 2.1837 3.4864 1.0936.7746 2.408 1.1887 3.943 1.2423 1.2793.0447 2.3915-.1726 3.3368-.6519.9773-.4782 1.8477-1.1042 2.6112-1.878.2339-.28.4788-.4156.7346-.4066.1919.0067.3959.1258.6119.3575zm-4.4274-9.3762c-.3414-1.2287-.9795-2.2115-1.9143-2.9486s-2.0899-1.1296-3.465-1.1776c-1.4711-.0514-2.7158.2894-3.734 1.0223s-1.7541 1.6357-2.2078 2.7086z" fill="#f277ba"/><path d="m46.1051 25.821c.0224-.6397.3533-.9483.993-.926l3.5018.1223c.2878.0101.4935.0813.6169.2137.1566.1015.2629.2653.3191.4914l.4244 1.5998c.7966-.8047 1.7629-1.4273 2.899-1.868 1.1372-.4726 2.4733-.682 4.0083-.6284 1.4392.0502 2.7734.353 4.0028.9082 1.2305.5233 2.2761 1.2962 3.137 2.3189.8939.9918 1.571 2.2322 2.0313 3.7212.4923 1.49.7044 3.2105.6363 5.1613-.067 1.9188-.414 3.6038-1.041 5.0548-.6259 1.419-1.4679 2.6063-2.5259 3.562-1.026.9568-2.2355 1.667-3.6286 2.1306-1.361.4648-2.841.6693-4.4401.6135-1.3112-.0458-2.4403-.2614-3.3875-.6467-.9151-.3841-1.6847-.8113-2.3087-1.2813l-.3953 11.3211c-.0223.6396-.3533.9482-.9929.9259l-4.0296-.1407c-.6396-.0224-.9482-.3533-.9259-.9929zm5.5179 12.5362c-.029.8315.076 1.4915.3151 1.9802.2722.4577.6094.8858 1.0118 1.2841.3395.364.8406.6857 1.5032.965.6958.2484 1.5713.3911 2.6267.4279 1.535.0536 2.8024-.4784 3.802-1.5962 1.0327-1.1487 1.5843-2.7304 1.6546-4.7452.0681-1.9508-.3254-3.5175-1.1807-4.7001-.8541-1.2145-2.1446-1.8519-3.8716-1.9122-.7995-.028-1.5726.1051-2.3193.3993-.7468.2941-1.37.7206-1.8698 1.2795-.4656.496-.837 1.0434-1.114 1.6421-.276.5667-.4301 1.3138-.4625 2.2412z" fill="#d68af4"/><path d="m25.5773 38.744c.2934-.1499.552-.2209.7759-.2131.3198.0112.6169.2137.8914.6075.853 1.2465 1.672 2.0916 2.457 2.5353.8181.4128 1.6908.6354 2.6183.6678.7035.0246 1.2688-.1158 1.6957-.4211.428-.3373.6521-.7937.6722-1.3694.0123-.3518-.0245-.6732-.1104-.9644s-.3003-.5708-.6431-.839c-.3109-.267-.7662-.523-1.3661-.7681-.5987-.2771-1.3887-.5768-2.37-.8993-1.9638-.6129-3.5344-1.4842-4.7117-2.614-1.1772-1.1298-1.7357-2.5581-1.6754-4.2851.0379-1.0873.3113-2.0384.82-2.8531.5088-.8147 1.1564-1.4805 1.9429-1.9974s1.648-.887 2.5844-1.1105c.9374-.2554 1.8539-.3675 2.7494-.3362 1.8868.0658 3.4444.3924 4.6726.9796 1.2614.5564 2.4361 1.3018 3.5241 2.2364.1555.1335.2629.2653.3224.3955.0606.0981.0876.2432.0809.4351-.0067.1918-.1105.4124-.3113.6615l-2.0522 2.3778c-.2659.2789-.5428.4133-.8306.4033-.2559-.009-.5083-.1138-.7575-.3146-.8091-.6687-1.5754-1.1918-2.2986-1.5692-.7233-.3775-1.5486-.5824-2.4761-.6148-.5756-.0201-1.0923.1059-1.5501.3781-.4247.2413-.6449.5859-.6605 1.0336-.0089.2558.0307.4974.1188.7246.1212.1963.3224.3955.6035.5974.3131.2031.7376.426 1.2734.6689.569.2119 1.2813.4449 2.137.699 2.5669.762 4.4065 1.7228 5.5187 2.8823 1.1453 1.1287 1.6834 2.6844 1.6141 4.6672-.0346.9914-.2589 1.9121-.6728 2.7622s-1.0164 1.5975-1.8073 2.2423c-.7579.6139-1.6872 1.0938-2.788 1.4396-1.0687.3469-2.2907.4963-3.6659.4483-1.9508-.0681-3.7906-.5646-5.5193-1.4895-1.7288-.9249-3.1227-2.2704-4.1817-4.0364-.1201-.2283-.1763-.4544-.1685-.6783.0146-.4158.2342-.7443.6588-.9856z" fill="#f277ba"/></svg>