<svg clip-rule="evenodd" fill-rule="evenodd" height="256" image-rendering="optimizeQuality" shape-rendering="geometricPrecision" text-rendering="geometricPrecision" width="256" xmlns="http://www.w3.org/2000/svg"><g fill="#056ebc"><path d="m123.5 8.5c6.486-1.66536 9.319.66797 8.5 7-6.251 10.1705-12.751 20.1705-19.5 30-3.038 1.2308-6.038 1.0641-9-.5-4.3333-.6667-8.6667-.6667-13 0-4.1146 1.2252-8.1146 2.7252-12 4.5-4.887-1.6955-7.0537-5.0288-6.5-10 17.1472-10.4849 34.314-20.8182 51.5-31z" opacity=".969"/><path d="m138.5 16.5c4.011.0016 7.678 1.1683 11 3.5 7.583 4.3742 15.083 8.8742 22.5 13.5 2.061 12.6034 3.061 25.27 3 38-7.381 2.7158-12.881 7.5491-16.5 14.5-9.986-.2446-19.652-2.2446-29-6-.523-10.5729-4.356-19.7396-11.5-27.5-.552-2.9192.115-5.5859 2-8 5.996-9.4866 12.163-18.82 18.5-28z" opacity=".984"/><path d="m181.5 41.5c2.027-.1621 4.027.0045 6 .5 8.832 4.9149 17.499 10.0816 26 15.5.985 1.5983 1.151 3.265.5 5-4.167 4.1667-8.333 8.3333-12.5 12.5-2 .6667-4 .6667-6 0-4.529-1.8307-8.863-3.8307-13-6-.999-7.658-1.999-15.3246-3-23 .019-1.833.685-3.333 2-4.5z" opacity=".966"/><path d="m59.5 45.5c6.5812.2314 10.9145 3.5648 13 10-5.1838 8.3542-7.5172 17.3542-7 27-7.7679 3.6471-15.7679 6.8138-24 9.5-5.2003 2.1841-10.5336 3.5174-16 4-.5-.5-1-1-1.5-1.5-.6667-9.3333-.6667-18.6667 0-28 12.1439-6.6483 23.9772-13.6483 35.5-21z" opacity=".979"/></g><path d="m221.5 63.5c3.525-.1541 6.359 1.1792 8.5 4 .667 23 .667 46 0 69-8.053 5.615-16.553 10.615-25.5 15-3.277-1.554-6.444-3.221-9.5-5-2.119-7.921-3.453-15.921-4-24 10.43-5.365 16.264-13.865 17.5-25.5-.414-4.077-1.581-7.9104-3.5-11.5-.667-2-.667-4 0-6 5.395-5.5638 10.895-10.8971 16.5-16z" fill="#056ebb" opacity=".982"/><path d="m127.5 86.5c9.115 1.8622 18.115 4.1956 27 7 .905 6.766 3.072 13.1 6.5 19 2.767 2.258 4.934 4.925 6.5 8-8.042 18.288-16.375 36.454-25 54.5-.712 1.442-1.879 2.275-3.5 2.5-1.235-1.115-2.402-1.115-3.5 0-8.626-23.711-16.96-47.544-25-71.5 2.433-3.766 5.599-6.933 9.5-9.5 2.289-3.6188 4.789-6.9521 7.5-10z" fill="#056ebc" opacity=".979"/><path d="m64.5 89.5c1.6992-.1602 3.3659.0065 5 .5 2.7969 3.7988 5.9636 7.2988 9.5 10.5.1667 1 .3333 2 .5 3-4.8813 11.432-10.048 22.765-15.5 34-14.7205 1.39-23.8872 9.224-27.5 23.5-3.5716 1.48-7.2382 2.146-11 2-.5-.5-1-1-1.5-1.5-.6667-18.667-.6667-37.333 0-56 .9025-1.201 2.0692-2.035 3.5-2.5 12.5467-4.2346 24.8801-8.7346 37-13.5z" fill="#22a1e8" opacity=".985"/><path d="m86.5 105.5c5.6625.469 11.3291.969 17 1.5l1.5 1.5c7.833 22.833 15.667 45.667 23.5 68.5-1.476 5.138-4.81 6.805-10 5-14.06-6.115-27.8938-12.615-41.5-19.5-.231-4.084-.8976-8.084-2-12-1.8949-3.205-3.7283-6.372-5.5-9.5 4.7357-12.304 10.4023-24.137 17-35.5z" fill="#056ebc" opacity=".981"/><path d="m174.5 122.5c3.333.333 6.667.667 10 1 1.267 7.5 2.6 15 4 22.5-.167 1.167-.333 2.333-.5 3.5-4.633 3.886-6.966 8.886-7 15-8.918 5.877-18.085 11.377-27.5 16.5-1.973.495-3.973.662-6 .5.023-2.427.523-4.76 1.5-7 8.29-17.579 16.79-34.912 25.5-52z" fill="#056ebc" opacity=".971"/><path d="m223.5 147.5c2.544-.396 4.711.271 6.5 2 .667 12.333.667 24.667 0 37-1.388 1.054-2.888 1.22-4.5.5-6.915-6.41-13.248-13.243-19-20.5.639-2.975 1.139-5.975 1.5-9 5.146-3.482 10.313-6.815 15.5-10z" fill="#056ebb" opacity=".969"/><path d="m37.5 166.5c3.3477.512 5.6811 2.345 7 5.5 4.4084 3.413 9.4084 4.913 15 4.5 2.0742 8.798 4.0742 17.632 6 26.5.3393 3.328-1.1607 5.161-4.5 5.5-12.6637-6.83-24.9971-14.163-37-22-.6667-5-.6667-10 0-15 4.5545-1.793 9.0545-3.459 13.5-5z" fill="#22a1e8" opacity=".982"/><path d="m71.5 169.5c3.9102-.237 7.5769.596 11 2.5 12.6959 5.431 25.196 11.265 37.5 17.5 1.168 4.982 1.835 9.982 2 15-7.863 8.198-16.03 16.031-24.5 23.5-1.7889.52-3.4556.187-5-1-4.6667-2.667-9.3333-5.333-14-8-1.5-.833-2.6667-2-3.5-3.5-3.1667-12.667-6.3333-25.333-9.5-38 1.6063-2.943 3.6063-5.609 6-8z" fill="#23a1e8" opacity=".983"/><path d="m182.5 170.5c2.925-.04 5.591.793 8 2.5 3.545.717 7.045.55 10.5-.5 7.5 4.833 13.667 11 18.5 18.5-.601 1.605-1.601 2.938-3 4-14.497 8.081-28.831 16.414-43 25-2 .667-4 .667-6 0-5.533-5.198-10.7-10.698-15.5-16.5.923-5.207 1.59-10.541 2-16 9.646-5.567 19.146-11.234 28.5-17z" fill="#22a1e8" opacity=".984"/><path d="m125.5 208.5c7.668 1.164 15.334 1.33 23 .5l12.5 12.5c.667 1.667.667 3.333 0 5-10.253 6.545-20.753 12.712-31.5 18.5-4.704.163-9.037-1.17-13-4-3.5-2.167-7-4.333-10.5-6.5-.667-2-.667-4 0-6 6.703-6.535 13.203-13.202 19.5-20z" fill="#23a1e8" opacity=".977"/></svg>