<svg fill="none" height="96" viewBox="0 0 517 96" width="517" xmlns="http://www.w3.org/2000/svg"><path d="m226.88 1.47998-37.01 93.04002h7.88l29.13-73.23 29.12 73.23h7.88z" fill="#03c7d3"/><path d="m96.8597 1.47998-29.07 81.94002-29.06-81.94002-37.00997 93.04002h7.88l29.12997-73.23 25.12 73.23h7.88l25.13-73.23 29.1303 73.23h7.88z" fill="#03d6b4"/><path d="m478.01 94.52 37-93.04002h-7.88l-29.12 73.23002-29.13-73.23002h-7.88z" fill="#1a87c4"/><path d="m377.118 53.1c-5.15-3.99-12.76-7.18-22.64-9.47-10.33-2.37-17.29-5.14-20.68-8.23-3.34-3.04-4.97-6.61-4.97-10.9s1.93-8.05 5.91-11.39c3.98-3.34002 9.99-5.04002 17.88-5.04002s13.9 1.94002 18.5 5.77002 6.44 8.32 6.44 13.74v1.54h6.91v-1.88c.29-7.62-2.52-13.94-8.33-18.68002-5.73-4.68-13.65-7.08-23.52-7.08-9.17 0-16.59 2.21-22.06 6.59-5.54 4.44002-8.35 10.02002-8.35 16.61002 0 7.19 2.51 12.71 7.45 16.39 4.77 3.56 12.53 6.5 23.04 8.73 9.62 2.1 16.41 5.01 20.21 8.65 3.72 3.56 5.6 7.55 5.6 11.85 0 4.64-2.19 8.64-6.69 12.22-4.52 3.6-10.76 5.42-18.55 5.42-7.27 0-13.64-1.5-18.94-4.47-5.19-2.9-7.91-7.86-8.32-14.42l-.07-1.42h-5.9v2.09c-.41 6.89 2.47 12.89 8.55 17.67 5.97 4.7 14.27 7.12 24.68 7.12 9.48 0 17.22-2.2 23-6.6 5.88-4.46 8.86-10.36 8.86-17.55s-2.69-13.15-8-17.26" fill="#03a1ce"/></svg>