<svg fill="none" height="89" viewBox="0 0 283 89" width="283" xmlns="http://www.w3.org/2000/svg" xmlns:xlink="http://www.w3.org/1999/xlink"><filter id="a" color-interpolation-filters="sRGB" filterUnits="userSpaceOnUse" height="88.5" width="282.5" x="0" y=".019531"><feFlood flood-opacity="0" result="BackgroundImageFix"/><feColorMatrix in="SourceAlpha" result="hardAlpha" type="matrix" values="0 0 0 0 0 0 0 0 0 0 0 0 0 0 0 0 0 0 127 0"/><feOffset dy="4"/><feGaussianBlur stdDeviation="2"/><feComposite in2="hardAlpha" operator="out"/><feColorMatrix type="matrix" values="0 0 0 0 0 0 0 0 0 0 0 0 0 0 0 0 0 0 0.1 0"/><feBlend in2="BackgroundImageFix" mode="normal" result="effect1_dropShadow_709_1792"/><feBlend in="SourceGraphic" in2="effect1_dropShadow_709_1792" mode="normal" result="shape"/></filter><g filter="url(#a)"><path d="m4 22.5195 34.5-22.4999688 49.5 16.9999688h99.5l42.5-15.99997 48.5 21.49997-22.5 54.8701-89-7.3701-36 10.5-33-10.5-83-3.1299z" fill="#fff"/></g><path d="m248.172 52.291-8.448-19.824c-.064-.16-.096-.32-.096-.48 0-.192.064-.32.192-.384.16-.096.32-.144.48-.144h5.04c.352 0 .592.064.72.192.16.128.288.32.384.576l4.896 12.144 4.512-12c.128-.352.272-.592.432-.72.192-.128.464-.192.816-.192h4.8c.448 0 .672.176.672.528 0 .128-.032.272-.096.432l-12.768 31.968c-.192.448-.496.672-.912.672h-5.088c-.384 0-.576-.144-.576-.432 0-.096.016-.192.048-.288s.064-.176.096-.24z" fill="#d68af4"/><path d="m228.905 20.419c0-.64.32-.96.96-.96h4.032c.64 0 .96.32.96.96v26.592c0 .864.176 1.488.528 1.872.352.352.8.528 1.344.528s.96-.08 1.248-.24c.32-.16.608-.24.864-.24.384 0 .576.208.576.624v3.744c0 .224-.064.384-.192.48-.096.096-.224.176-.384.24-.64.224-1.28.352-1.92.384-.64.064-1.312.096-2.016.096-.608 0-1.264-.112-1.968-.336-.704-.192-1.36-.512-1.968-.96-.576-.48-1.072-1.088-1.488-1.824-.384-.768-.576-1.696-.576-2.784z" fill="#223a60"/><path d="m212.683 36.7396h-3.408c-.64 0-.96-.32-.96-.96v-3.36c0-.64.32-.96.96-.96h3.408v-6.816c0-.64.32-.96.96-.96h4.032c.64 0 .96.32.96.96v6.816h4.896c.64 0 .96.32.96.96v3.36c0 .64-.32.96-.96.96h-4.896v9.408c0 2.048.848 3.072 2.544 3.072.48 0 .912-.032 1.296-.096.416-.096.752-.144 1.008-.144.32 0 .48.176.48.528v4.032c0 .256-.048.416-.144.48-.096.096-.288.176-.576.24-.448.064-.976.112-1.584.144-.576.064-1.168.096-1.776.096-2.176 0-3.92-.496-5.232-1.488s-1.968-2.592-1.968-4.8z" fill="#6f8df8"/><path d="m183.764 32.4185c0-.64.32-.96.96-.96h4.032c.64 0 .96.32.96.96v2.016c1.056-1.056 2.288-1.888 3.696-2.496 1.44-.64 3.024-.96 4.752-.96 2.24 0 3.968.592 5.184 1.776 1.248 1.152 1.872 2.656 1.872 4.512v15.792c0 .64-.32.96-.96.96h-4.032c-.64 0-.96-.32-.96-.96v-13.872c0-1.952-.976-2.928-2.928-2.928-1.12 0-2.112.304-2.976.912-.864.576-1.568 1.28-2.112 2.112-.512.8-.896 1.6-1.152 2.4-.256.768-.384 1.808-.384 3.12v8.256c0 .64-.32.96-.96.96h-4.032c-.64 0-.96-.32-.96-.96z" fill="#f277ba"/><path d="m177.824 49.1225c.16.16.24.336.24.528s-.096.384-.288.576c-.768.768-1.52 1.424-2.256 1.968-.704.512-1.456.944-2.256 1.296-.768.352-1.6.608-2.496.768s-1.888.24-2.976.24c-1.568 0-3.072-.256-4.512-.768-1.408-.512-2.672-1.264-3.792-2.256-1.088-.992-1.968-2.224-2.64-3.696-.64-1.472-.96-3.152-.96-5.04 0-1.792.32-3.408.96-4.848s1.488-2.672 2.544-3.696c1.088-1.024 2.336-1.808 3.744-2.352 1.408-.576 2.896-.864 4.464-.864 1.952 0 3.648.352 5.088 1.056 1.44.672 2.624 1.568 3.552 2.688.96 1.088 1.664 2.32 2.112 3.696.448 1.344.672 2.704.672 4.08v1.44c0 .64-.32.96-.96.96h-16.32c.416 1.504 1.184 2.64 2.304 3.408 1.12.736 2.448 1.104 3.984 1.104 1.28 0 2.384-.256 3.312-.768.96-.512 1.808-1.168 2.544-1.968.224-.288.464-.432.72-.432.192 0 .4.112.624.336zm-4.752-9.216c-.384-1.216-1.056-2.176-2.016-2.88s-2.128-1.056-3.504-1.056c-1.472 0-2.704.384-3.696 1.152s-1.696 1.696-2.112 2.784z" fill="#223a60"/><path d="m129.818 32.419c0-.64.32-.96.96-.96h4.032c.64 0 .96.32.96.96v12.672c0 1.344.352 2.368 1.056 3.072s1.728 1.056 3.072 1.056c1.664 0 2.992-.528 3.984-1.584.576-.576.96-1.168 1.152-1.776.192-.64.288-1.504.288-2.592v-10.848c0-.64.32-.96.96-.96h4.032c.64 0 .96.32.96.96v20.64c0 .64-.32.96-.96.96h-4.032c-.64 0-.96-.32-.96-.96v-.528c-.512.352-1.008.656-1.488.912s-.992.464-1.536.624c-.512.16-1.072.272-1.68.336-.576.064-1.248.096-2.016.096-2.816 0-4.992-.8-6.528-2.4-1.504-1.6-2.256-3.76-2.256-6.48z" fill="#d68af4"/><path d="m118.182 52.8665c-.448.288-.88.544-1.296.768-.384.192-.816.352-1.296.48-.448.128-.944.224-1.488.288-.512.064-1.12.096-1.824.096-1.6 0-3.088-.256-4.464-.768s-2.576-1.264-3.6-2.256c-.992-.992-1.792-2.208-2.4-3.648-.576-1.472-.864-3.136-.864-4.992 0-1.6.272-3.12.816-4.56s1.328-2.688 2.352-3.744c1.056-1.088 2.32-1.952 3.792-2.592s3.136-.96 4.992-.96c1.024 0 1.952.128 2.784.384.832.224 1.664.64 2.496 1.248v-.192c0-.64.32-.96.96-.96h4.032c.64 0 .96.32.96.96v27.12c.384-.48.896-.896 1.536-1.248s1.248-.528 1.824-.528c.64 0 .96.256.96.768v3.408c0 .64-.32.96-.96.96-.864 0-1.568.112-2.112.336-.512.256-.944.592-1.296 1.008-.448.544-.976.816-1.584.816h-3.36c-.64 0-.96-.32-.96-.96zm0-12.48c0-.672-.128-1.28-.384-1.824s-.608-.96-1.056-1.248c-1.056-.704-2.256-1.056-3.6-1.056-.864 0-1.664.16-2.4.48s-1.376.768-1.92 1.344-.976 1.264-1.296 2.064c-.288.8-.432 1.68-.432 2.64 0 1.152.16 2.128.48 2.928s.752 1.472 1.296 2.016c.576.512 1.216.896 1.92 1.152.736.224 1.504.336 2.304.336.832 0 1.552-.096 2.16-.288.608-.224 1.152-.56 1.632-1.008.864-.768 1.296-1.92 1.296-3.456z" fill="#6f8df8"/><path d="m95.9331 49.1225c.16.16.24.336.24.528s-.096.384-.288.576c-.768.768-1.52 1.424-2.256 1.968-.704.512-1.456.944-2.256 1.296-.768.352-1.6.608-2.496.768s-1.888.24-2.976.24c-1.568 0-3.072-.256-4.512-.768-1.408-.512-2.672-1.264-3.792-2.256-1.088-.992-1.968-2.224-2.64-3.696-.64-1.472-.96-3.152-.96-5.04 0-1.792.32-3.408.96-4.848s1.488-2.672 2.544-3.696c1.088-1.024 2.336-1.808 3.744-2.352 1.408-.576 2.896-.864 4.464-.864 1.952 0 3.648.352 5.088 1.056 1.44.672 2.624 1.568 3.552 2.688.96 1.088 1.664 2.32 2.112 3.696.448 1.344.672 2.704.672 4.08v1.44c0 .64-.32.96-.96.96h-16.32c.416 1.504 1.184 2.64 2.304 3.408 1.12.736 2.448 1.104 3.984 1.104 1.28 0 2.384-.256 3.312-.768.96-.512 1.808-1.168 2.544-1.968.224-.288.464-.432.72-.432.192 0 .4.112.624.336zm-4.752-9.216c-.384-1.216-1.056-2.176-2.016-2.88s-2.128-1.056-3.504-1.056c-1.472 0-2.704.384-3.696 1.152s-1.696 1.696-2.112 2.784z" fill="#223a60"/><path d="m51.5764 32.4185c0-.64.32-.96.96-.96h4.032c.64 0 .96.32.96.96v1.44c.8-.896 1.744-1.6 2.832-2.112s2.384-.768 3.888-.768c2.24 0 4 .672 5.28 2.016 1.312 1.312 1.968 3.024 1.968 5.136 0 .64-.32.96-.96.96h-3.888c-.256 0-.432-.048-.528-.144-.096-.128-.176-.336-.24-.624-.192-1.376-1.072-2.064-2.64-2.064-.832 0-1.552.176-2.16.528-.576.352-1.088.784-1.536 1.296-.608.704-1.104 1.552-1.488 2.544-.352.992-.528 2.208-.528 3.648v8.784c0 .64-.32.96-.96.96h-4.032c-.64 0-.96-.32-.96-.96z" fill="#f277ba"/><path d="m25.436 21.3789c0-.64.32-.96.96-.96h21.792c.64 0 .96.32.96.96v4.224c0 .448-.224.672-.672.672h-16.8v7.728h13.344c.64 0 .96.32.96.96v3.936c0 .64-.32.96-.96.96h-13.344v13.2c0 .64-.32.96-.96.96h-4.32c-.64 0-.96-.32-.96-.96z" fill="#6f8df8"/></svg>