<svg fill="none" height="85" viewBox="0 0 103 85" width="103" xmlns="http://www.w3.org/2000/svg" xmlns:xlink="http://www.w3.org/1999/xlink"><filter id="a" color-interpolation-filters="sRGB" filterUnits="userSpaceOnUse" height="82.5957" width="102.442" x=".560913" y="1.47607"><feFlood flood-opacity="0" result="BackgroundImageFix"/><feColorMatrix in="SourceAlpha" result="hardAlpha" type="matrix" values="0 0 0 0 0 0 0 0 0 0 0 0 0 0 0 0 0 0 127 0"/><feOffset dy="4"/><feGaussianBlur stdDeviation="2"/><feComposite in2="hardAlpha" operator="out"/><feColorMatrix type="matrix" values="0 0 0 0 0 0 0 0 0 0 0 0 0 0 0 0 0 0 0.1 0"/><feBlend in2="BackgroundImageFix" mode="normal" result="effect1_dropShadow_709_1393"/><feBlend in="SourceGraphic" in2="effect1_dropShadow_709_1393" mode="normal" result="shape"/></filter><g filter="url(#a)"><path d="m31.9474 1.47587-25.9033 11.10273-1.48323 42.4741 33.64773 10.6808 38.1625 10.3382 22.6322-17.721-8.5107-42.8231-19.4881-.6805z" fill="#fff"/></g><path d="m61.2183 54.4094c.1986-.1852.4098-.2739.6337-.266.1919.0067.3804.1093.5656.3079.4618.5284.9093 1.0083 1.3426 1.4397.4332.4314.9006.7999 1.4022 1.1056.5017.3057 1.0695.5497 1.7035.7319.634.1823 1.3828.2885 2.2463.3186 1.7589.0614 3.04-.4061 3.8433-1.4027.8021-.9646 1.2317-2.2624 1.2886-3.8934l.067-1.9188c-.3607.2435-.7363.4545-1.1268.633-.3904.1785-.8277.3233-1.3119.4345-.4533.1443-.9849.2378-1.5948.2805-.611.0747-1.3162.0981-2.1157.0702-1.5031-.0525-2.9333-.3586-4.2906-.9183s-2.5303-1.3531-3.5191-2.3802c-.9887-1.0272-1.7618-2.2709-2.3191-3.7313-.5563-1.4923-.8009-3.1979-.7339-5.1167s.446-3.6026 1.137-5.0514c.7229-1.4476 1.6288-2.6327 2.7177-3.5553 1.09-.9545 2.3155-1.6642 3.6765-2.129 1.3611-.4648 2.7292-.6732 4.1044-.6251 1.4711.0513 2.6322.268 3.4834.6499.8832.3831 1.7442.9415 2.5831 1.6752l.0235-.6716c.0223-.6396.3533-.9482.9929-.9259l4.0295.1407c.6396.0223.9483.3533.9259.9929l-.7605 21.7788c-.0681 1.9508-.3986 3.6203-.9914 5.0084-.5619 1.4213-1.3388 2.5789-2.3306 3.4728s-2.1671 1.5413-3.5259 1.9421c-1.3589.4008-2.8378.5733-4.4368.5175-1.3752-.048-2.6019-.2189-3.6804-.5128-1.0795-.2618-2.0437-.6157-2.8927-1.0616-.8181-.4128-1.5534-.9027-2.206-1.4698-.6537-.5352-1.2589-1.0846-1.8156-1.6484-.2469-.2648-.3676-.4771-.362-.637.0067-.1919.1259-.3959.3576-.6119zm13.4815-14.7065c.0279-.7995-.0132-1.4573-.1232-1.9735-.1101-.5161-.4103-1.0869-.9008-1.7124-.4288-.5593-.9893-1.0112-1.6817-1.3556-.6913-.3763-1.5167-.5812-2.4761-.6147-.8635-.0302-1.6531.1183-2.369.4455-.7147.2953-1.3545.7372-1.9194 1.3259-.5318.5577-.9556 1.2314-1.2713 2.0208-.3146.7575-.487 1.568-.5172 2.4315-.0726 2.0787.4147 3.7127 1.4618 4.902 1.0483 1.1573 2.4359 1.7661 4.1628 1.8264.8955.0312 1.6509-.0545 2.2664-.2571.6485-.2335 1.2536-.5966 1.8151-1.0893.5946-.5236.9819-1.0704 1.162-1.6405.18-.57.2811-1.1749.3035-1.8145z" fill="#6f8df8"/><path d="m46.9617 29.417c.0224-.6396.3534-.9483.993-.9259l4.0295.1407c.6396.0223.9483.3533.9259.9929l-.7203 20.6274c-.0223.6396-.3533.9483-.9929.9259l-4.0296-.1407c-.6396-.0223-.9482-.3533-.9259-.9929zm-.4928-7.894c.0369-1.0554.4194-1.9226 1.1475-2.6016.7613-.7098 1.6696-1.0463 2.7249-1.0095 1.0554.0369 1.922.4354 2.5999 1.1955.711.7292 1.048 1.6215 1.0112 2.6769-.0369 1.0554-.4359 1.938-1.1972 2.6478-.7281.679-1.6198 1.0001-2.6752.9633-1.0554-.0369-1.9385-.42-2.6495-1.1492-.6779-.7601-.9984-1.6679-.9616-2.7232z" fill="#75dab6"/><path d="m19.1812 16.4394c.0224-.6396.3533-.9483.9929-.9259l4.0296.1407c.6396.0223.9482.3533.9259.9929l-.4908 14.0555c.8992-.9933 2.0156-1.7868 3.3491-2.3806 1.3346-.6258 2.7855-.9114 4.3525-.8566 3.262.1139 5.7208 1.2244 7.3763 3.3314 1.6554 2.1071 2.419 4.9995 2.2905 8.6772-.0592 1.695-.3703 3.2691-.9333 4.7223-.562 1.4213-1.3411 2.6429-2.3374 3.6647-.9962 1.0219-2.1926 1.8126-3.5889 2.3722-1.3633.5287-2.8925.7635-4.5874.7043-1.4072-.0491-2.6488-.2526-3.725-.6103-1.0762-.3578-2.0199-.839-2.8313-1.4437l-.0134.3837c-.0224.6396-.3533.9483-.9929.9259l-4.0296-.1407c-.6396-.0223-.9482-.3533-.9259-.9929zm5.0773 25.1525c-.0257.7356.0673 1.2831.2788 1.6427.2116.3597.4888.6735.8317.9416.6228.5021 1.3307.863 2.1235 1.0828s1.525.3414 2.1966.3649c1.9508.0681 3.4437-.5041 4.4786-1.7167 1.067-1.2116 1.6328-2.7447 1.6976-4.5996.0726-2.0787-.3838-3.6796-1.3692-4.8027-.9843-1.1551-2.244-1.7594-3.7791-1.813-1.2152-.0424-2.2658.2411-3.1516.8505-.8527.5786-1.481 1.149-1.8848 1.7113-.405.5942-.73 1.1912-.9751 1.791-.2131.601-.3325 1.2692-.3582 2.0048z" fill="#f277ba"/></svg>