<svg fill="none" height="88" viewBox="0 0 180 88" width="180" xmlns="http://www.w3.org/2000/svg" xmlns:xlink="http://www.w3.org/1999/xlink"><filter id="a" color-interpolation-filters="sRGB" filterUnits="userSpaceOnUse" height="77.5435" width="178.657" x=".742432" y="10.4346"><feFlood flood-opacity="0" result="BackgroundImageFix"/><feColorMatrix in="SourceAlpha" result="hardAlpha" type="matrix" values="0 0 0 0 0 0 0 0 0 0 0 0 0 0 0 0 0 0 127 0"/><feOffset dy="4"/><feGaussianBlur stdDeviation="2"/><feComposite in2="hardAlpha" operator="out"/><feColorMatrix type="matrix" values="0 0 0 0 0 0 0 0 0 0 0 0 0 0 0 0 0 0 0.1 0"/><feBlend in2="BackgroundImageFix" mode="normal" result="effect1_dropShadow_709_1400"/><feBlend in="SourceGraphic" in2="effect1_dropShadow_709_1400" mode="normal" result="shape"/></filter><g filter="url(#a)"><path d="m29.3433 10.4346-24.60083 13.7495 2.96465 42.3965 34.57988 7.1052 39.034 6.2924 43.949-16.6061 40.007-1.294 10.122-27.2725-13.54-21.6081-28.152 5.9783-64.1229.4742z" fill="#fff"/></g><path d="m142.076 30.0185c-.045-.6384.252-.98.891-1.0246l4.022-.2813c.638-.0446.98.2523 1.025.8907l.1 1.4365c.736-.9496 1.628-1.7177 2.678-2.3044 1.049-.5866 2.324-.9324 3.825-1.0373 2.234-.1563 4.037.3913 5.407 1.6428 1.401 1.2172 2.175 2.8793 2.322 4.9862.045.6384-.252.9799-.891 1.0246l-3.878.2712c-.256.0179-.435-.0177-.537-.1068-.105-.121-.199-.3229-.283-.6058-.287-1.3592-1.213-1.9841-2.778-1.8748-.829.0581-1.535.2839-2.117.6774-.55.3913-1.031.858-1.442 1.4-.558.7447-.993 1.6252-1.307 2.6416-.282 1.0141-.373 2.2395-.272 3.676l.612 8.7626c.045.6384-.252.9799-.89 1.0246l-4.023.2812c-.638.0447-.98-.2522-1.024-.8907z" fill="#75dab6"/><path d="m137.315 47.096c.171.1484.263.3184.277.51.013.1915-.069.3897-.247.5947-.713.8197-1.417 1.5265-2.114 2.1205-.666.5599-1.386 1.0433-2.16 1.4502-.741.4048-1.553.7182-2.436.9403s-1.867.3711-2.952.447c-1.564.1094-3.082-.0411-4.555-.4514-1.44-.4125-2.753-1.0745-3.94-1.986-1.154-.9137-2.118-2.0813-2.891-3.5028-.741-1.4238-1.178-3.0774-1.309-4.9608-.125-1.7876.081-3.422.619-4.9031.538-1.4812 1.298-2.7693 2.28-3.8645 1.014-1.0974 2.204-1.9665 3.571-2.6074 1.364-.6728 2.829-1.0639 4.393-1.1733 1.947-.1362 3.663.0967 5.149.6985 1.483.5699 2.727 1.3811 3.731 2.4337 1.033 1.0183 1.822 2.1982 2.364 3.5396.541 1.3095.859 2.6506.955 4.0232l.101 1.4365c.045.6385-.252.98-.891 1.0246l-16.28 1.1385c.52 1.4713 1.365 2.5509 2.536 3.2389 1.169.6561 2.519.9306 4.051.8234 1.277-.0892 2.361-.4216 3.251-.9971.922-.5777 1.722-1.2913 2.4-2.1407.204-.3029.433-.4633.688-.4812.192-.0134.407.0839.646.2917zm-5.383-8.8621c-.468-1.1862-1.205-2.097-2.212-2.7323-1.007-.6354-2.196-.905-3.569-.809-1.468.1026-2.671.5717-3.607 1.407s-1.573 1.8102-1.912 2.9245z" fill="#f277ba"/><path d="m92.3709 58.0337c.1782-.2049.379-.3152.6024-.3308.1915-.0134.3898.0689.5947.2471.5145.4772 1.0098.9077 1.4857 1.2915.4759.3837.9793.7014 1.5102.953.5308.2515 1.121.4348 1.7706.5498.6496.1149 1.4054.1423 2.2675.082 1.755-.1227 2.981-.7217 3.675-1.7968.697-1.0431.989-2.3787.875-4.0067l-.134-1.9153c-.333.2799-.685.529-1.054.7473-.37.2184-.79.4081-1.26.5693-.435.1908-.954.3394-1.556.4456-.6.1382-1.2992.2352-2.0972.291-1.5004.1049-2.9547-.05-4.3631-.4648-1.4083-.4147-2.6579-1.0812-3.7486-1.9993-1.0907-.9182-1.9895-2.0743-2.6965-3.4684-.7092-1.426-1.1307-3.0967-1.2647-5.012-.1339-1.9153.067-3.6295.6028-5.1426.5677-1.5152 1.3447-2.7886 2.3312-3.8199.9842-1.0632 2.1288-1.8971 3.4338-2.5016 1.3051-.6045 2.6439-.9548 4.0165-1.0507 1.4684-.1027 2.6458-.0086 3.5328.2822.918.2887 1.833.754 2.744 1.396l-.047-.6703c-.045-.6385.252-.98.89-1.0247l4.023-.2812c.638-.0447.98.2522 1.024.8907l1.52 21.7389c.137 1.9472-.018 3.6421-.462 5.0846-.41 1.4722-1.062 2.7047-1.955 3.6974s-1.994 1.7594-3.304 2.3001c-1.309.5406-2.762.8668-4.358.9784-1.3726.0959-2.6105.0542-3.7137-.1253-1.101-.1475-2.0969-.3987-2.9878-.7534-.8568-.325-1.6393-.7354-2.3476-1.2312-.7061-.4639-1.3654-.9471-1.978-1.4496-.2732-.2375-.4154-.4361-.4266-.5957-.0134-.1915.0839-.4068.2917-.6459zm11.8701-16.0351c-.056-.7981-.165-1.448-.329-1.9498-.163-.5019-.521-1.0382-1.074-1.609-.485-.5114-1.09-.9022-1.815-1.1723-.726-.302-1.5687-.4195-2.5263-.3526-.8619.0603-1.6317.2906-2.3095.6908-.6799.3683-1.27.8747-1.7703 1.5192-.4706.6103-.8216 1.3245-1.0531 2.1427-.2337.7862-.3205 1.6103-.2602 2.4722.1451 2.0749.8005 3.649 1.9662 4.7223 1.1635 1.0414 2.6071 1.5018 4.3309 1.3813.8943-.0625 1.6363-.2267 2.2273-.4926.62-.3 1.184-.7244 1.691-1.2731.537-.5828.865-1.1671.984-1.7529.12-.5858.157-1.1979.112-1.8363z" fill="#6f8df8"/><path d="m63.987 60.0185c.1782-.2049.3789-.3152.6024-.3308.1915-.0134.3898.069.5947.2471.5145.4773 1.0098.9078 1.4857 1.2915.4759.3838.9793.7014 1.5102.953.5308.2516 1.121.4349 1.7706.5498.6496.115 1.4054.1424 2.2673.0821 1.7557-.1228 2.9809-.7217 3.6756-1.7968.6969-1.0431.9885-2.3787.8746-4.0068l-.1339-1.9153c-.3333.28-.6848.5291-1.0545.7474-.3696.2183-.7894.4081-1.2593.5692-.4358.1909-.9547.3394-1.5567.4457-.5998.1382-1.2988.2352-2.0968.291-1.5004.1049-2.9547-.05-4.3631-.4648-1.4083-.4148-2.6579-1.0812-3.7486-1.9994-1.0907-.9181-1.9895-2.0743-2.6965-3.4683-.7092-1.426-1.1307-3.0967-1.2647-5.012-.1339-1.9153.067-3.6295.6028-5.1426.5676-1.5153 1.3447-2.7886 2.3312-3.8199.9842-1.0633 2.1288-1.8971 3.4338-2.5016s2.6439-.9548 4.0165-1.0508c1.4684-.1027 2.6459-.0086 3.5323.2823.9184.2886 1.8331.754 2.7441 1.396l-.0469-.6704c-.0446-.6384.2523-.98.8907-1.0246l4.0222-.2813c.6384-.0446.98.2523 1.0246.8907l1.5201 21.739c.1362 1.9472-.0179 3.6421-.4624 5.0846-.4103 1.4722-1.0619 2.7047-1.9548 3.6974-.893.9927-1.9942 1.7594-3.3037 2.3-1.3094.5407-2.7622.8668-4.3583.9784-1.3727.096-2.6106.0543-3.7138-.1252-1.101-.1476-2.0969-.3987-2.9878-.7534-.8568-.3251-1.6393-.7355-2.3476-1.2313-.7061-.4638-1.3654-.947-1.978-1.4495-.2732-.2375-.4154-.4361-.4266-.5957-.0134-.1916.0839-.4069.2917-.6459zm11.8704-16.0351c-.0558-.798-.1654-1.4479-.3288-1.9498-.1634-.5018-.5217-1.0381-1.0749-1.6089-.4848-.5114-1.0896-.9022-1.8142-1.1723-.7268-.302-1.5691-.4196-2.5267-.3526-.8619.0603-1.6317.2905-2.3095.6908-.6799.3683-1.2701.8747-1.7703 1.5192-.4706.6103-.8216 1.3245-1.0531 2.1426-.2337.7863-.3205 1.6103-.2602 2.4722.1451 2.0749.8005 3.6491 1.9662 4.7224 1.1635 1.0413 2.6071 1.5018 4.3309 1.3812.8938-.0625 1.6362-.2267 2.2271-.4925.6206-.3001 1.1843-.7244 1.6913-1.2731.5366-.5829.8647-1.1672.9841-1.7529.1194-.5858.1568-1.1979.1122-1.8363z" fill="#75dab6"/><path d="m47.196 36.6528c-.0446-.6385.2523-.98.8907-1.0246l4.0222-.2813c.6385-.0446.98.2523 1.0246.8907l1.4398 20.5897c.0447.6385-.2522.98-.8907 1.0246l-4.0222.2813c-.6384.0446-.9799-.2523-1.0246-.8907zm-1.3152-7.7993c-.0737-1.0534.2161-1.9558.8693-2.7072.6828-.7855 1.551-1.2152 2.6044-1.2888 1.0534-.0737 1.957.232 2.7106.9171.7833.651 1.2118 1.5032 1.2855 2.5566.0736 1.0534-.231 1.9729-.9138 2.7585-.6532.7514-1.5065 1.1639-2.56 1.2375-1.0534.0737-1.9718-.2149-2.7551-.8659-.7536-.6851-1.1672-1.5543-1.2409-2.6078z" fill="#f277ba"/><path d="m18.2113 26.6505c-.0447-.6384.2522-.98.8906-1.0246l4.0222-.2813c.6385-.0446.98.2523 1.0247.8907l.981 14.0298c.7905-1.0818 1.8178-1.9877 3.0819-2.7176 1.262-.7619 2.675-1.1975 4.2392-1.3069 3.2561-.2277 5.8174.6197 7.6841 2.5422 1.8666 1.9224 2.9283 4.7192 3.185 8.3902.1183 1.6919-.0266 3.2899-.4347 4.794-.4103 1.4722-1.0574 2.7685-1.9414 3.8889s-1.9911 2.0319-3.3214 2.7344c-1.3005.6683-2.7967 1.0617-4.4886 1.18-1.4046.0982-2.6607.0256-3.7683-.2177-1.1077-.2433-2.0966-.6233-2.9668-1.1398l.0268.383c.0446.6385-.2522.98-.8907 1.0247l-4.0222.2812c-.6384.0447-.98-.2522-1.0246-.8907zm7.6786 24.484c.0513.7342.201 1.2691.449 1.6046s.5565.6187.9255.8495c.6719.4342 1.4136.7192 2.2251.8549.8114.1357 1.5523.1802 2.2227.1333 1.9472-.1362 3.3721-.8613 4.2746-2.1755.9345-1.3164 1.337-2.9003 1.2075-4.7518-.1451-2.0749-.7663-3.6194-1.8637-4.6333-1.0997-1.0458-2.4156-1.5152-3.9479-1.408-1.213.0848-2.2282.4766-3.0454 1.1753-.7876.6645-1.3528 1.2975-1.6957 1.8989-.3406.6333-.6015 1.261-.7825 1.8832-.1491.6199-.198 1.2969-.1467 2.0311z" fill="#d68af4"/></svg>