<svg fill="none" height="32" viewBox="0 0 40 32" width="40" xmlns="http://www.w3.org/2000/svg" xmlns:xlink="http://www.w3.org/1999/xlink"><filter id="a" color-interpolation-filters="sRGB" filterUnits="userSpaceOnUse" height="27.9604" width="24.4006" x=".826904" y="3.27783"><feFlood flood-opacity="0" result="BackgroundImageFix"/><feColorMatrix in="SourceAlpha" result="hardAlpha" type="matrix" values="0 0 0 0 0 0 0 0 0 0 0 0 0 0 0 0 0 0 127 0"/><feOffset dy="4"/><feGaussianBlur stdDeviation="2"/><feComposite in2="hardAlpha" operator="out"/><feColorMatrix type="matrix" values="0 0 0 0 0 0 0 0 0 0 0 0 0 0 0 0 0 0 0.25 0"/><feBlend in2="BackgroundImageFix" mode="normal" result="effect1_dropShadow_809_2289"/><feBlend in="SourceGraphic" in2="effect1_dropShadow_809_2289" mode="normal" result="shape"/></filter><filter id="b" color-interpolation-filters="sRGB" filterUnits="userSpaceOnUse" height="28.4961" width="23.0078" x="16.2207" y="2.14795"><feFlood flood-opacity="0" result="BackgroundImageFix"/><feColorMatrix in="SourceAlpha" result="hardAlpha" type="matrix" values="0 0 0 0 0 0 0 0 0 0 0 0 0 0 0 0 0 0 127 0"/><feOffset dy="4"/><feGaussianBlur stdDeviation="2"/><feComposite in2="hardAlpha" operator="out"/><feColorMatrix type="matrix" values="0 0 0 0 0 0 0 0 0 0 0 0 0 0 0 0 0 0 0.25 0"/><feBlend in2="BackgroundImageFix" mode="normal" result="effect1_dropShadow_809_2289"/><feBlend in="SourceGraphic" in2="effect1_dropShadow_809_2289" mode="normal" result="shape"/></filter><g filter="url(#a)"><path d="m6.27239 20.6663 3.95421 2.5719 4.0084-.4277 1.9935-2.6684 3-4.4749 1.5-4.5251.4992-5.50003-2.3761-1.99998-6.2641-.3645-3.0356 1.94548-.07226 3.99935-1.05403 2.98148-2.0629 3.4633-1.53588 1.9725z" fill="#fcfcfc"/></g><g filter="url(#b)"><path d="m20.7329 19.6478 5.4871 2.9963 3.5017-2.4973 2-3 2.5007-7 1.0061-5.00249-1.5-2.00222-2.7841-.99424h-4.7237l-2.5 2.99863-1.4922 7.49562-2.0078 3.5044z" fill="#fcfcfc"/></g><g fill="#6f8df8"><path d="m22.5605 17.9421c-.5547-.3413-.832-.6827-.832-1.024 0-.256.064-.4907.192-.704 1.28-1.6213 2.1547-3.1573 2.624-4.608.4693-1.4933.704-3.22134.704-5.18401 0-.55466.192-.93866.576-1.152.256-.08533.512-.128.768-.128h4.16c.8107 0 1.216.42667 1.216 1.28 0 2.60267-.512 4.92801-1.536 6.97601-.9813 2.0053-2.2187 3.8827-3.712 5.632-.2133.2133-.384.384-.512.512-.128.0853-.2987.128-.512.128s-.448-.064-.704-.192z"/><path d="m8.56052 18.9421c-.55467-.3413-.832-.6827-.832-1.024 0-.256.064-.4907.192-.704 1.28-1.6213 2.15468-3.1573 2.62398-4.608.4693-1.4933.704-3.22134.704-5.18401 0-.55466.192-.93866.576-1.152.256-.08533.512-.128.768-.128h4.16c.8107 0 1.216.42667 1.216 1.28 0 2.60271-.512 4.92801-1.536 6.97601-.9813 2.0053-2.2187 3.8827-3.712 5.632-.2133.2133-.384.384-.512.512-.128.0853-.2987.128-.512.128s-.448-.064-.704-.192z"/></g></svg>