<svg fill="none" height="39" viewBox="0 0 40 39" width="40" xmlns="http://www.w3.org/2000/svg" xmlns:xlink="http://www.w3.org/1999/xlink"><filter id="a" color-interpolation-filters="sRGB" filterUnits="userSpaceOnUse" height="28" width="25" x="14.5" y="10.3154"><feFlood flood-opacity="0" result="BackgroundImageFix"/><feColorMatrix in="SourceAlpha" result="hardAlpha" type="matrix" values="0 0 0 0 0 0 0 0 0 0 0 0 0 0 0 0 0 0 127 0"/><feOffset dy="4"/><feGaussianBlur stdDeviation="2"/><feComposite in2="hardAlpha" operator="out"/><feColorMatrix type="matrix" values="0 0 0 0 0 0 0 0 0 0 0 0 0 0 0 0 0 0 0.25 0"/><feBlend in2="BackgroundImageFix" mode="normal" result="effect1_dropShadow_809_2282"/><feBlend in="SourceGraphic" in2="effect1_dropShadow_809_2282" mode="normal" result="shape"/></filter><filter id="b" color-interpolation-filters="sRGB" filterUnits="userSpaceOnUse" height="29.5" width="25.5" x="0" y=".81543"><feFlood flood-opacity="0" result="BackgroundImageFix"/><feColorMatrix in="SourceAlpha" result="hardAlpha" type="matrix" values="0 0 0 0 0 0 0 0 0 0 0 0 0 0 0 0 0 0 127 0"/><feOffset dy="4"/><feGaussianBlur stdDeviation="2"/><feComposite in2="hardAlpha" operator="out"/><feColorMatrix type="matrix" values="0 0 0 0 0 0 0 0 0 0 0 0 0 0 0 0 0 0 0.25 0"/><feBlend in2="BackgroundImageFix" mode="normal" result="effect1_dropShadow_809_2282"/><feBlend in="SourceGraphic" in2="effect1_dropShadow_809_2282" mode="normal" result="shape"/></filter><g filter="url(#a)"><path d="m34 12.8154-4-2.5-4 .5-3 2.5-1.5 4-1.5 4-1.5 6 2 3h7.5l3-2v-4l1-3 2-3.5 1.5-2z" fill="#fcfcfc"/></g><g filter="url(#b)"><path d="m21.5 6.81543-6-6-3.5 2-3 3-3.5 6.49997-1.5 7 4 2 6.5 1 2-3 1.5-7.5 3-2.99997z" fill="#fcfcfc"/></g><g fill="#6f8df8"><path d="m31.408 14.5434c.5547.3414.832.6827.832 1.024 0 .2987-.064.5334-.192.704-1.28 1.6214-2.1547 3.1787-2.624 4.672-.4693 1.4507-.704 3.1574-.704 5.12 0 .5974-.192.9814-.576 1.152-.256.0854-.512.128-.768.128h-4.16c-.8107 0-1.216-.4266-1.216-1.28 0-2.6026.4907-4.9066 1.472-6.912 1.024-2.048 2.2827-3.9466 3.776-5.696.2133-.2133.384-.3626.512-.448.128-.128.2987-.192.512-.192s.448.064.704.192z"/><path d="m17.408 6.04343c.5547.34133.832.68267.832 1.024 0 .29867-.064.53333-.192.704-1.28 1.62133-2.1547 3.17867-2.624 4.67197-.4693 1.4507-.704 3.1574-.704 5.12 0 .5974-.192.9814-.576 1.152-.256.0854-.512.128-.768.128h-4.16c-.81067 0-1.216-.4266-1.216-1.28 0-2.6026.49067-4.9066 1.472-6.912 1.024-2.04797 2.2827-3.94664 3.776-5.69597.2133-.21333.384-.36267.512-.448.128-.128.2987-.192.512-.192s.448.064.704.192z"/></g></svg>