<svg fill="none" height="95" viewBox="0 0 358 95" width="358" xmlns="http://www.w3.org/2000/svg" xmlns:xlink="http://www.w3.org/1999/xlink"><filter id="a" color-interpolation-filters="sRGB" filterUnits="userSpaceOnUse" height="90.4922" width="356.159" x=".963989" y="3.71777"><feFlood flood-opacity="0" result="BackgroundImageFix"/><feColorMatrix in="SourceAlpha" result="hardAlpha" type="matrix" values="0 0 0 0 0 0 0 0 0 0 0 0 0 0 0 0 0 0 127 0"/><feOffset dy="4"/><feGaussianBlur stdDeviation="2"/><feComposite in2="hardAlpha" operator="out"/><feColorMatrix type="matrix" values="0 0 0 0 0 0 0 0 0 0 0 0 0 0 0 0 0 0 0.1 0"/><feBlend in2="BackgroundImageFix" mode="normal" result="effect1_dropShadow_709_1441"/><feBlend in="SourceGraphic" in2="effect1_dropShadow_709_1441" mode="normal" result="shape"/></filter><g filter="url(#a)"><path d="m4.964 30.0174 30.7844-21.93903 36.3207 5.77113 39.3779-10.13196 69.381 18.93296 66.187-4.1927 55.315-8.0745 45.739 22.6101 5.054 27.1929-24.375 24.6644-125.127-12.8748-36.519 14.2342-39.435-16.8865-105.2327 4.8304z" fill="#fff"/></g><path d="m334.052 58.6236c.155.1655.228.3442.222.5361-.007.1918-.11.3804-.308.5656-.794.7407-1.569 1.37-2.323 1.888-.722.4871-1.489.8926-2.3 1.2165-.78.325-1.621.5518-2.522.6804-.901.1287-1.895.174-2.982.136-1.567-.0547-3.061-.363-4.483-.925-1.389-.5608-2.626-1.3565-3.711-2.3869-1.052-1.0294-1.889-2.2914-2.509-3.7859-.588-1.4935-.849-3.1836-.783-5.0705.062-1.7909.438-3.3947 1.128-4.8115s1.58-2.6185 2.672-3.605c1.123-.9854 2.397-1.7253 3.823-2.2199 1.428-.5265 2.925-.7624 4.492-.7077 1.951.0682 3.633.4791 5.048 1.233 1.416.7218 2.568 1.6586 3.456 2.8103.921 1.1208 1.582 2.3766 1.982 3.7674.4 1.3589.577 2.7259.529 4.101l-.05 1.4391c-.023.6396-.354.9483-.993.926l-16.31-.5696c.363 1.5176 1.091 2.6797 2.183 3.4863 1.094.7747 2.408 1.1888 3.943 1.2424 1.279.0447 2.392-.1727 3.337-.652.977-.4781 1.848-1.1041 2.611-1.878.234-.28.479-.4155.735-.4066.192.0067.396.1259.612.3576zm-4.427-9.3762c-.341-1.2287-.98-2.2116-1.914-2.9486-.935-.7371-2.09-1.1297-3.465-1.1777-1.471-.0513-2.716.2894-3.734 1.0223-1.019.7329-1.755 1.6358-2.208 2.7086z" fill="#6f8df8"/><path d="m300.234 28.7211c.023-.6396.354-.9482.993-.9259l4.03.1407c.639.0224.948.3533.926.993l-.928 26.5758c-.031.8634.124 1.4932.462 1.8892.339.3641.781.5556 1.325.5746.543.019.962-.0464 1.255-.1963.326-.1487.616-.2186.872-.2097.384.0134.569.228.554.6437l-.131 3.7418c-.007.2238-.077.3815-.208.473-.1.0926-.23.1681-.392.2264-.648.2016-1.292.3071-1.933.3168-.641.0416-1.314.0501-2.018.0256-.607-.0212-1.259-.1561-1.955-.4045-.697-.2165-1.341-.5592-1.933-1.0281-.559-.4998-1.033-1.1248-1.424-1.8748-.356-.781-.516-1.7151-.478-2.8024z" fill="#d68af4"/><path d="m271.799 27.728c.022-.6396.353-.9483.992-.9259l4.03.1407c.64.0223.948.3533.926.9929l-.491 14.0554c.899-.9932 2.016-1.7867 3.349-2.3805 1.335-.6258 2.786-.9114 4.353-.8567 3.262.1139 5.72 1.2244 7.376 3.3315 1.655 2.1071 2.419 4.9995 2.291 8.6772-.06 1.695-.371 3.2691-.934 4.7223-.562 1.4213-1.341 2.6428-2.337 3.6647-.996 1.0218-2.193 1.8126-3.589 2.3722-1.363.5287-2.893.7635-4.588.7043-1.407-.0491-2.648-.2526-3.724-.6104-1.077-.3577-2.02-.839-2.832-1.4437l-.013.3838c-.023.6396-.354.9483-.993.9259l-4.03-.1407c-.639-.0223-.948-.3533-.926-.9929zm5.077 25.1525c-.026.7355.067 1.2831.279 1.6427.211.3596.488.6735.831.9416.623.5021 1.331.863 2.124 1.0828s1.525.3414 2.196.3649c1.951.0681 3.444-.5042 4.479-1.7168 1.067-1.2115 1.633-2.7447 1.698-4.5995.072-2.0788-.384-3.6797-1.37-4.8027-.984-1.1551-2.244-1.7594-3.779-1.813-1.215-.0425-2.265.241-3.151.8505-.853.5786-1.481 1.149-1.885 1.7113-.405.5942-.73 1.1912-.975 1.791-.213.6009-.333 1.2692-.358 2.0047z" fill="#f277ba"/><path d="m258.859 58.9757c-.857.6745-1.804 1.2178-2.843 1.6298-1.007.4131-2.326.5912-3.957.5342-1.503-.0525-2.934-.3426-4.292-.8703-1.359-.5277-2.549-1.2897-3.571-2.286-1.021-1.0283-1.825-2.2891-2.413-3.7825-.557-1.4924-.8-3.2299-.731-5.2127.065-1.8549.426-3.4913 1.084-4.9092.691-1.4487 1.582-2.6504 2.672-3.6049 1.091-.9866 2.333-1.7117 3.726-2.1753 1.426-.4945 2.923-.7145 4.49-.6597 1.535.0536 2.791.3056 3.768.7559.978.4184 1.869 1.0099 2.675 1.7745l.03-.8635c.023-.6396.354-.9482.993-.9259l4.03.1407c.639.0224.948.3533.926.9929l-.721 20.6275c-.022.6396-.353.9482-.992.9259l-3.406-.119c-.32-.0111-.573-.1-.76-.2666-.186-.1666-.35-.5086-.492-1.0258zm.328-10.7951c.026-.7355-.047-1.3785-.22-1.9289-.173-.5503-.507-1.0743-1.002-1.5719-.526-.5307-1.136-.9362-1.831-1.2166-.693-.3124-1.52-.4854-2.479-.5189-.832-.029-1.637.103-2.415.396-.746.2621-1.416.655-2.011 1.1785-.594.5236-1.082 1.195-1.463 2.0142-.348.7883-.539 1.6782-.574 2.6696-.035 1.0234.093 1.9404.385 2.7511s.7 1.4973 1.225 2.06c.556.5638 1.197 1.0184 1.921 1.3639.758.3146 1.552.4865 2.384.5155.991.0346 1.893-.11 2.704-.4339.812-.3238 1.485-.7967 2.019-1.4184.435-.5291.741-1.0308.917-1.5049.209-.473.327-1.0933.353-1.8608z" fill="#6f8df8"/><path d="m226.769 42.4856-3.406-.1189c-.64-.0223-.948-.3533-.926-.9929l.117-3.358c.023-.6396.354-.9482.993-.9259l3.406.119.238-6.8119c.022-.6396.353-.9482.993-.9259l4.029.1407c.64.0224.949.3533.926.9929l-.238 6.8119 4.893.1709c.64.0223.949.3533.926.9929l-.117 3.3579c-.022.6396-.353.9483-.993.9259l-4.893-.1708-.328 9.4022c-.072 2.0468.74 3.0998 2.435 3.159.48.0167.913-.0002 1.299-.0508.419-.0814.756-.1176 1.012-.1087.32.0112.474.1926.461.5444l-.14 4.0296c-.009.2558-.063.4141-.161.4747-.099.0926-.294.1658-.584.2197-.45.0483-.979.0779-1.588.0886-.578.0439-1.171.0552-1.778.034-2.175-.0759-3.901-.6325-5.177-1.6697-1.277-1.0372-1.877-2.6591-1.8-4.8657z" fill="#d68af4"/><path d="m208.358 41.8431-3.406-.119c-.639-.0223-.948-.3533-.926-.9929l.118-3.3579c.022-.6397.353-.9483.993-.926l3.405.119.238-6.8119c.023-.6396.354-.9482.993-.9259l4.03.1407c.639.0224.948.3533.926.993l-.238 6.8118 4.893.1709c.639.0223.948.3533.926.9929l-.118 3.3579c-.022.6397-.353.9483-.992.926l-4.893-.1709-.329 9.4023c-.071 2.0467.74 3.0997 2.435 3.1589.48.0167.913-.0002 1.299-.0507.419-.0815.757-.1177 1.012-.1088.32.0112.474.1927.462.5445l-.141 4.0295c-.009.2558-.062.4141-.161.4747-.099.0926-.294.1658-.584.2197-.45.0484-.979.0779-1.588.0887-.578.0438-1.17.0551-1.778.0339-2.175-.0759-3.9-.6325-5.177-1.6697-1.276-1.0371-1.876-2.6591-1.799-4.8657z" fill="#6f8df8"/><path d="m199.65 53.9302c.154.1655.228.3442.221.5361-.006.1919-.109.3804-.308.5656-.794.7407-1.568 1.3701-2.323 1.8881-.721.4871-1.488.8926-2.3 1.2164-.78.325-1.62.5518-2.521.6805-.901.1286-1.895.1739-2.983.136-1.567-.0548-3.061-.3631-4.482-.925-1.389-.5609-2.626-1.3565-3.711-2.387-1.053-1.0294-1.889-2.2913-2.509-3.7859-.589-1.4934-.85-3.1836-.784-5.0704.063-1.7909.439-3.3948 1.129-4.8116s1.58-2.6184 2.671-3.6049c1.123-.9854 2.398-1.7254 3.824-2.2199 1.427-.5265 2.924-.7624 4.491-.7077 1.951.0681 3.634.4791 5.048 1.2329 1.416.7219 2.568 1.6586 3.456 2.8103.922 1.1209 1.582 2.3767 1.982 3.7675.401 1.3588.577 2.7258.529 4.101l-.05 1.4391c-.022.6396-.353.9482-.993.9259l-16.31-.5696c.363 1.5176 1.091 2.6797 2.184 3.4864 1.093.7746 2.408 1.1887 3.943 1.2423 1.279.0447 2.391-.1726 3.337-.6519.977-.4782 1.847-1.1042 2.611-1.878.234-.28.479-.4156.734-.4066.192.0067.396.1259.612.3575zm-4.428-9.3762c-.341-1.2286-.979-2.2115-1.914-2.9486s-2.09-1.1296-3.465-1.1776c-1.471-.0514-2.716.2894-3.734 1.0223s-1.754 1.6358-2.208 2.7086z" fill="#f277ba"/><path d="m153.808 60.1101c.199-.1852.41-.2739.634-.2661.192.0067.38.1094.565.308.462.5284.91 1.0083 1.343 1.4397s.901.7999 1.402 1.1056c.502.3057 1.07.5497 1.704.7319s1.383.2884 2.246.3186c1.759.0614 3.04-.4062 3.843-1.4027.802-.9646 1.232-2.2624 1.289-3.8934l.067-1.9189c-.361.2436-.736.4546-1.127.6331-.39.1785-.828.3233-1.312.4345-.453.1442-.985.2378-1.595.2805-.611.0747-1.316.0981-2.115.0702-1.503-.0525-2.934-.3586-4.291-.9183s-2.53-1.3531-3.519-2.3803c-.989-1.0271-1.762-2.2708-2.319-3.7312-.556-1.4923-.801-3.1979-.734-5.1167s.446-3.6026 1.137-5.0514c.723-1.4477 1.629-2.6328 2.718-3.5553 1.09-.9546 2.315-1.6642 3.676-2.129s2.729-.6732 4.105-.6252c1.471.0514 2.632.2681 3.483.65.883.3831 1.744.9415 2.583 1.6752l.024-.6716c.022-.6396.353-.9483.993-.9259l4.029.1407c.64.0223.948.3533.926.9929l-.761 21.7787c-.068 1.9509-.398 3.6203-.991 5.0085-.562 1.4212-1.339 2.5788-2.331 3.4728-.991.8939-2.167 1.5413-3.525 1.9421-1.359.4008-2.838.5733-4.437.5175-1.375-.048-2.602-.219-3.681-.5128-1.079-.2618-2.043-.6157-2.892-1.0616-.818-.4128-1.554-.9027-2.206-1.4699-.654-.5351-1.259-1.0846-1.816-1.6483-.247-.2648-.368-.4771-.362-.6371.007-.1918.126-.3958.358-.6118zm13.482-14.7065c.028-.7995-.014-1.4573-.124-1.9735-.11-.5161-.41-1.087-.9-1.7125-.429-.5593-.99-1.0111-1.682-1.3555-.691-.3763-1.517-.5813-2.476-.6148-.864-.0301-1.653.1184-2.369.4456-.715.2953-1.355.7372-1.92 1.3259-.531.5577-.955 1.2314-1.271 2.0208-.315.7575-.487 1.568-.517 2.4314-.073 2.0788.415 3.7128 1.462 4.902 1.048 1.1573 2.436 1.7661 4.163 1.8264.895.0313 1.65-.0544 2.266-.257.648-.2335 1.254-.5966 1.815-1.0893.595-.5236.982-1.0704 1.162-1.6405s.281-1.1749.304-1.8145z" fill="#d68af4"/><path d="m127.842 34.7087c.023-.6397.354-.9483.993-.926l4.03.1408c.639.0223.948.3533.926.9929l-.051 1.4391c.831-.8675 1.799-1.5382 2.904-2.0119 1.106-.4737 2.41-.6843 3.913-.6318 2.238.0782 3.974.8112 5.206 2.199 1.266 1.357 1.861 3.0909 1.788 5.2016-.023.6396-.354.9482-.993.9259l-3.886-.1357c-.256-.0089-.43-.0631-.522-.1623-.092-.1313-.165-.342-.219-.632-.143-1.3819-.999-2.1002-2.566-2.1549-.831-.0291-1.557.1217-2.177.4523-.588.3317-1.115.7455-1.58 1.2416-.633.6823-1.158 1.5125-1.576 2.4905-.387.9791-.605 2.1882-.655 3.6274l-.307 8.7786c-.022.6396-.353.9483-.993.9259l-4.029-.1407c-.64-.0223-.948-.3533-.926-.9929z" fill="#6f8df8"/><path d="m110.268 56.1881c-1.631-.0569-3.174-.3509-4.628-.882-1.422-.53-2.66-1.3096-3.712-2.339-1.053-1.0294-1.874-2.2748-2.4636-3.7362-.5882-1.4935-.8477-3.2316-.7785-5.2144.0637-1.8229.4244-3.4433 1.0823-4.8612.6908-1.4488 1.5818-2.6504 2.6718-3.6049 1.123-.9855 2.413-1.7249 3.871-2.2183 1.491-.4923 3.083-.7088 4.778-.6496 1.663.058 3.221.3846 4.673.9796 1.452.5951 2.688 1.4227 3.707 2.4829 1.053 1.0294 1.857 2.2903 2.414 3.7826.589 1.4614.852 3.1036.788 4.9265-.069 1.9828-.449 3.6986-1.14 5.1473-.69 1.4168-1.596 2.6019-2.718 3.5554-1.122.9534-2.427 1.6443-3.915 2.0726-1.455.4294-2.999.6157-4.63.5587zm.184-5.2767c1.823.0636 3.267-.4783 4.332-1.6259 1.096-1.1464 1.678-2.679 1.745-4.5979.037-1.0553-.09-1.9883-.382-2.799s-.7-1.4974-1.225-2.06c-.492-.5935-1.084-1.0465-1.778-1.3589-.693-.3124-1.44-.4825-2.239-.5104-.8-.028-1.556.0897-2.27.353-.714.2632-1.352.6732-1.916 1.2298-.531.5258-.97 1.1829-1.318 1.9712-.347.7884-.54 1.7102-.577 2.7656-.067 1.9188.391 3.4878 1.373 4.7068 1.014 1.2201 2.433 1.862 4.255 1.9257z" fill="#d68af4"/><path d="m84.9969 37.5351-2.7823-.0971c-.6396-.0224-.9482-.3534-.9259-.993l.1173-3.3579c.0223-.6396.3533-.9483.9929-.9259l2.7823.0971.1541-4.4133c.048-1.3751.3132-2.5506.7955-3.5264.4835-1.0077 1.1047-1.8345 1.8637-2.4804.791-.6448 1.6878-1.1098 2.6904-1.395 1.0025-.2852 2.0475-.4088 3.1348-.3708.6716.0234 1.3101.0778 1.9155.1629.6054.0852 1.0818.1979 1.4291.3381.5061.1778.753.4426.7407.7944l-.1374 3.9336c-.0145.4157-.2136.6169-.5974.6035-.3198-.0112-.7013-.0886-1.1446-.2321-.4421-.1755-.983-.2745-1.6226-.2968-1.0874-.038-1.882.2545-2.3841.8773-.4701.624-.7263 1.5436-.7687 2.7589l-.1207 3.4539 4.989.1742c.6396.0223.9483.3533.9259.9929l-.1172 3.3579c-.0224.6397-.3534.9483-.993.926l-4.9889-.1743-.5696 16.3101c-.0223.6396-.3533.9482-.9929.9259l-4.0295-.1407c-.6397-.0223-.9483-.3533-.926-.9929z" fill="#f277ba"/><path d="m55.886 32.1955c.0224-.6396.3533-.9483.9929-.9259l4.0296.1407c.6396.0223.9482.3533.9259.9929l-.0704 2.0148c1.0923-1.0185 2.3525-1.807 3.7809-2.3655 1.4615-.5894 3.0557-.8539 4.7826-.7936 2.2386.0782 3.9449.7301 5.1189 1.9558 1.207 1.1949 1.7781 2.7198 1.7134 4.5746l-.5512 15.7824c-.0223.6396-.3533.9482-.9929.9259l-4.0295-.1407c-.6396-.0223-.9483-.3533-.9259-.9929l.4841-13.8636c.0681-1.9508-.8732-2.9602-2.8241-3.0284-1.1193-.0391-2.1213.2301-3.006.8076-.8835.5455-1.6117 1.2245-2.1844 2.037-.5396.7817-.9513 1.5678-1.235 2.3584-.2827.7586-.4469 1.7934-.4927 3.1046l-.2881 8.251c-.0224.6396-.3533.9483-.9929.9259l-4.0296-.1407c-.6396-.0223-.9482-.3533-.9259-.9929z" fill="#d68af4"/><path d="m28.4877 31.2387c.0224-.6396.3533-.9482.993-.9259l4.0295.1407c.6396.0224.9482.3533.9259.9929l-.4422 12.6643c-.0469 1.3432.2691 2.3789.9481 3.107s1.6901 1.1157 3.0333 1.1626c1.663.058 3.0086-.4233 4.0368-1.444.5958-.5556 1.0002-1.1338 1.2133-1.7347.2142-.633.3403-1.4931.3783-2.5804l.3786-10.8414c.0223-.6396.3533-.9483.9929-.9259l4.0296.1407c.6396.0223.9482.3533.9259.9929l-.7204 20.6274c-.0223.6397-.3533.9483-.9929.926l-4.0295-.1408c-.6396-.0223-.9483-.3533-.9259-.9929l.0184-.5277c-.524.334-1.0303.6205-1.5189.8596-.4887.2391-1.0076.4291-1.5569.57-.5172.142-1.0808.2344-1.6907.2771-.5779.0439-1.2506.0524-2.0181.0256-2.8143-.0983-4.961-.9737-6.4403-2.6263-1.4472-1.6516-2.1234-3.8365-2.0284-6.5548z" fill="#6f8df8"/></svg>