<svg fill="none" height="88" viewBox="0 0 228 88" width="228" xmlns="http://www.w3.org/2000/svg" xmlns:xlink="http://www.w3.org/1999/xlink"><filter id="a" color-interpolation-filters="sRGB" filterUnits="userSpaceOnUse" height="86.5542" width="227.031" x=".774902" y=".637695"><feFlood flood-opacity="0" result="BackgroundImageFix"/><feColorMatrix in="SourceAlpha" result="hardAlpha" type="matrix" values="0 0 0 0 0 0 0 0 0 0 0 0 0 0 0 0 0 0 127 0"/><feOffset dy="4"/><feGaussianBlur stdDeviation="2"/><feComposite in2="hardAlpha" operator="out"/><feColorMatrix type="matrix" values="0 0 0 0 0 0 0 0 0 0 0 0 0 0 0 0 0 0 0.1 0"/><feBlend in2="BackgroundImageFix" mode="normal" result="effect1_dropShadow_709_1508"/><feBlend in="SourceGraphic" in2="effect1_dropShadow_709_1508" mode="normal" result="shape"/></filter><g filter="url(#a)"><path d="m23.2368 77.9889-18.46193-56.1107 27.41213-11.95103 53.4769 7.71183 32.9041-12.23889 38.997 8.47069 51.879-13.233261 14.362 54.322761-74.609 9.4177-34.272 14.8139-37.6293-11.0458z" fill="#fff"/></g><path d="m195.807 45.7332c-.731.7432-1.613 1.3342-2.647 1.7729-1.036.4068-2.273.6479-3.712.7233-1.342.0703-2.664-.1007-3.968-.5131-1.305-.4443-2.478-1.1198-3.519-2.0266-1.01-.9404-1.858-2.1297-2.542-3.5678-.652-1.4399-1.029-3.1344-1.132-5.0838-.097-1.8534.121-3.5151.652-4.9849.531-1.5018 1.265-2.774 2.204-3.8166.969-1.0762 2.111-1.9051 3.426-2.4867 1.314-.6136 2.722-.9597 4.224-1.0385 1.15-.0603 2.213.0443 3.189.3136 1.005.2357 1.926.6841 2.762 1.3453l-.656-12.5109c-.033-.6391.269-.9754.909-1.0089l4.026-.211c.639-.0335.975.2693 1.009.9084l1.708 32.5953c.034.6391-.253.9746-.86 1.0064l-3.404.1784c-.351.0184-.61-.0321-.777-.1516-.168-.1514-.341-.3987-.519-.7418zm-.621-10.9265c-.039-.735-.167-1.3531-.386-1.8544-.22-.5332-.566-1.0277-1.039-1.4836-.575-.5787-1.205-.9783-1.889-1.1988-.686-.2524-1.365-.3611-2.036-.3259-.767.0402-1.494.2225-2.182.547-.688.3244-1.29.7725-1.804 1.3442-.483.5701-.863 1.2789-1.139 2.1265-.245.814-.341 1.7483-.285 2.8028.102 1.9493.679 3.4892 1.732 4.6197 1.083 1.0968 2.423 1.6034 4.021 1.5196.831-.0435 1.606-.2283 2.326-.5545.752-.3278 1.351-.8238 1.797-1.488.417-.5987.689-1.2218.815-1.8693.158-.6491.221-1.2773.189-1.8845z" fill="#6f8df8"/><path d="m173.611 43.6757c.169.1514.258.323.268.5147s-.076.3885-.258.5903c-.727.8071-1.443 1.5016-2.15 2.0834-.676.5481-1.404 1.0189-2.185 1.4123-.748.3917-1.566.6909-2.452.8975-.887.2067-1.873.3385-2.96.3955-1.565.082-3.081-.0949-4.546-.5309-1.432-.4376-2.734-1.1224-3.904-2.0544-1.139-.9337-2.082-2.118-2.83-3.5528-.716-1.4365-1.124-3.0974-1.223-4.9828-.093-1.7896.142-3.4201.705-4.8916.564-1.4715 1.346-2.7462 2.347-3.8241 1.033-1.0795 2.239-1.9278 3.616-2.5447 1.376-.6489 2.847-1.0144 4.413-1.0965 1.949-.1021 3.661.1606 5.136.7883 1.473.5957 2.703 1.4285 3.688 2.4984 1.016 1.0363 1.783 2.2297 2.302 3.5804.518 1.3187.813 2.6651.885 4.0393l.075 1.438c.034.6391-.269.9754-.908 1.0089l-16.298.8541c.494 1.4802 1.321 2.5745 2.48 3.2828 1.157.6764 2.502.9743 4.036.894 1.278-.067 2.367-.3805 3.267-.9403.932-.5616 1.745-1.261 2.438-2.0985.208-.2993.44-.4557.696-.4691.192-.01.405.091.641.3029zm-5.227-8.9547c-.448-1.1942-1.169-2.1177-2.164-2.7705-.996-.6528-2.181-.9432-3.555-.8712-1.47.077-2.68.525-3.631 1.3439-.95.8188-1.604 1.7824-1.963 2.8907z" fill="#75dab6"/><path d="m128.441 29.316c-.033-.6392.27-.9755.909-1.009l4.026-.211c.639-.0335.976.2693 1.009.9085l.075 1.438c.752-.9367 1.658-1.6891 2.718-2.2573 1.06-.5683 2.341-.8918 3.842-.9705 2.237-.1172 4.03.4618 5.379 1.7369 1.379 1.2416 2.123 2.9169 2.234 5.026.033.6391-.269.9754-.909 1.0089l-3.882.2035c-.256.0134-.434-.0253-.535-.1162-.103-.1228-.193-.3263-.272-.6105-.264-1.3641-1.179-2.0051-2.745-1.9231-.831.0436-1.54.257-2.129.6404-.557.3816-1.046.8398-1.466 1.3746-.571.7348-1.022 1.6076-1.353 2.6184-.3 1.009-.412 2.2326-.336 3.6706l.459 8.772c.034.6391-.269.9754-.908 1.0089l-4.027.211c-.639.0335-.975-.2693-1.009-.9084z" fill="#9cb1fc"/><path d="m116.736 29.93c-.033-.6391.27-.9754.909-1.0089l4.026-.211c.639-.0335.976.2693 1.009.9084l1.08 20.6117c.034.6391-.269.9755-.908 1.0089l-4.027.2111c-.639.0335-.975-.2694-1.008-.9085zm-1.179-7.821c-.055-1.0546.251-1.9518.917-2.6917.696-.7735 1.572-1.1879 2.626-1.2431 1.055-.0553 1.953.2661 2.694.9643.772.6645 1.186 1.524 1.241 2.5786.055 1.0545-.265 1.9686-.962 2.7421-.666.7399-1.526 1.1374-2.581 1.1927-1.054.0553-1.968-.2493-2.739-.9139-.742-.6981-1.14-1.5745-1.196-2.629z" fill="#6f8df8"/><path d="m89.2138 31.3721c-.0335-.6391.2693-.9754.9084-1.0089l3.4992-.1834c.2876-.0151.4987.038.6332.1591.1648.0875.2851.2414.3607.4617l.5622 1.5567c.7234-.871 1.6318-1.5755 2.7251-2.1135 1.0917-.5699 2.4044-.895 3.9384-.9754 1.438-.0754 2.794.1099 4.067.5559 1.271.414 2.38 1.0929 3.327 2.0367.977.9101 1.759 2.0867 2.348 3.5299.62 1.4415.981 3.1369 1.083 5.0863.101 1.9173-.098 3.6261-.596 5.1262-.5 1.4682-1.235 2.7244-2.206 3.7686-.939 1.0426-2.082 1.8555-3.429 2.4388-1.315.5817-2.772.9144-4.37.9981-1.31.0687-2.4535-.0476-3.4306-.3489-.9452-.303-1.7491-.6614-2.4116-1.0753l.5928 11.3125c.0335.6391-.2693.9754-.9084 1.0089l-4.0265.211c-.6391.0335-.9754-.2693-1.0089-.9084zm6.5895 12.0076c.0435.8309.2057 1.4793.4864 1.9452.3111.4323.6844.8293 1.1199 1.191.3699.3331.8971.6099 1.5816.8304.7148.1868 1.5998.2526 2.6538.1974 1.534-.0804 2.75-.7209 3.649-1.9216.928-1.2343 1.34-2.8581 1.234-4.8713-.102-1.9493-.63-3.4758-1.585-4.5793-.957-1.1355-2.298-1.658-4.024-1.5676-.799.0419-1.5575.2419-2.2757.6-.7183.358-1.302.8372-1.7512 1.4376-.4206.5347-.7428 1.1124-.9666 1.7329-.2255.5887-.314 1.3463-.2654 2.273z" fill="#75dab6"/><path d="m69.8905 46.0355c.2792-.1748.5307-.2681.7543-.2799.3196-.0167.6332.1591.9409.5275.9585 1.1675 1.848 1.938 2.6687 2.3115.8509.34 1.7398.4856 2.6665.4371.703-.0369 1.2539-.226 1.6526-.5673.397-.3733.5804-.8475.5503-1.4227-.0184-.3516-.0831-.6686-.1941-.9512-.1109-.2826-.3488-.5425-.7138-.7797-.3329-.2389-.8088-.4543-1.4277-.6462-.6206-.2238-1.4337-.4536-2.4394-.6892-2.0098-.4395-3.6503-1.1706-4.9216-2.1935-1.2713-1.0228-1.9521-2.3971-2.0426-4.1227-.0569-1.0865.1325-2.0578.5683-2.9138.4358-.8559 1.023-1.5757 1.7614-2.1591.7385-.5835 1.5644-1.0273 2.4778-1.3315.9116-.3362 1.8148-.5277 2.7096-.5746 1.8854-.0988 3.4655.0908 4.7403.5687 1.305.4443 2.5402 1.0845 3.7056 1.9207.1664.1194.285.2414.3556.3659.0689.0925.1084.2346.1185.4264.01.1917-.0741.4204-.2525.6861l-1.8372 2.5477c-.2405.301-.5046.459-.7922.4741-.2557.0134-.5163-.0691-.782-.2474-.8644-.5956-1.6733-1.0499-2.4267-1.3629s-1.5935-.4452-2.5202-.3967c-.5752.0302-1.079.2008-1.5113.5118-.402.2775-.5913.6399-.5679 1.0873.0134.2556.0739.4928.1815.7114.1379.1851.3556.3659.6533.5426.3296.175.7719.3601 1.3269.5553.5852.1616 1.3151.3316 2.1897.5101 2.6236.5354 4.5399 1.3322 5.749 2.3904 1.2393 1.0245 1.9109 2.5275 2.0147 4.5087.0519.9907-.0913 1.9274-.4295 2.8104-.3383.8829-.8733 1.68-1.6051 2.3912-.7015.6777-1.5854 1.2367-2.6518 1.6771-1.0345.4388-2.2388.6941-3.6129.7662-1.9493.1021-3.8254-.2322-5.6282-1.0029s-3.3086-1.9895-4.5175-3.6565c-.1396-.217-.2152-.4374-.2269-.6611-.0218-.4154.1683-.7618.5703-1.0392z" fill="#9cb1fc"/><path d="m40.2498 33.938c-.0335-.6391.2693-.9754.9084-1.0089l4.0265-.211c.6391-.0335.9755.2693 1.0089.9084l.1056 2.0133c.9992-1.1099 2.186-2.0052 3.5603-2.6861 1.4045-.7144 2.9696-1.1169 4.6952-1.2073 2.2369-.1173 3.9935.3835 5.2698 1.5022 1.3066 1.0851 2.0085 2.5544 2.1056 4.4079l.8265 15.7703c.0335.6391-.2693.9755-.9084 1.0089l-4.0265.2111c-.6391.0335-.9754-.2694-1.0089-.9085l-.726-13.853c-.1022-1.9493-1.1279-2.8729-3.0773-2.7707-1.1184.0586-2.0932.4141-2.9242 1.0665-.8326.6204-1.4988 1.3603-1.9985 2.2196-.4695.8257-.8111 1.6447-1.0248 2.457-.2155.7804-.2889 1.8257-.2202 3.1359l.4321 8.2446c.0335.6392-.2694.9755-.9085 1.009l-4.0265.211c-.6391.0335-.9754-.2693-1.0089-.9085z" fill="#75dab6"/><path d="m28.6384 34.5467c-.0335-.6391.2694-.9754.9085-1.0089l4.0264-.211c.6392-.0335.9755.2693 1.009.9084l1.0802 20.6117c.0335.6391-.2693.9754-.9085 1.0089l-4.0264.2111c-.6391.0335-.9755-.2694-1.009-.9085zm-1.1789-7.821c-.0553-1.0546.2502-1.9518.9164-2.6917.6965-.7735 1.572-1.1879 2.6265-1.2431 1.0546-.0553 1.9526.2661 2.6942.9643.7718.6645 1.1854 1.524 1.2406 2.5786.0553 1.0545-.2653 1.9686-.9618 2.7421-.6662.7399-1.5265 1.1374-2.5811 1.1927-1.0545.0553-1.9677-.2493-2.7396-.9139-.7415-.6981-1.1399-1.5745-1.1952-2.629z" fill="#6f8df8"/></svg>