<svg fill="none" height="24" viewBox="0 0 24 24" width="24" xmlns="http://www.w3.org/2000/svg"><path clip-rule="evenodd" d="m13.2942 3.34589c-2.0706.14452-3.42997 1.26597-3.73805 3.08391-.04512.26624-.04907.40976-.04907 1.78476v1.38181h-1.08691-1.08692v1.48493 1.4848l1.0835.0035 1.08349.0035.00335 4.0616.00335 4.0616h1.57576 1.5757l.0035-4.065.0034-4.065h1.5302 1.5301l.0078-.0848c.0102-.1106.1315-2.70543.1313-2.80715l-.0002-.07798h-1.6006-1.6005l.006-1.22391c.0051-1.0377.0093-1.24247.0277-1.34596.0757-.42625.2525-.63664.6249-.74366.2048-.05883.3014-.06316 1.4097-.0632l1.0478-.00004.0082-.13222c.0119-.19302.0695-2.63247.0624-2.63954-.0072-.00704-.5482-.05633-.8333-.07593-.5482-.03769-1.3763-.05019-1.7226-.02602z" fill-rule="evenodd"/></svg>