<svg fill="none" height="24" viewBox="0 0 24 24" width="24" xmlns="http://www.w3.org/2000/svg"><path clip-rule="evenodd" d="m8.22862 4.01835c-.91385.09099-1.753.42971-2.46677.9957-.18272.14489-.46819.41741-.61927.59119-.64376.74048-1.02804 1.62903-1.12257 2.59565-.02668.27278-.02668 7.30981 0 7.58261.14121 1.444.94174 2.7222 2.19429 3.5037.5422.3382 1.20052.5722 1.86557.6631l.20453.0279h3.7683c3.5578 0 3.778-.0012 3.9419-.0222 1.0372-.1324 1.9575-.57 2.6944-1.2811.8003-.7723 1.2639-1.7077 1.4048-2.8342.013-.1035.0162-.868.0162-3.8547 0-3.53398-.0012-3.73439-.0226-3.89767-.1362-1.0375-.5728-1.94138-1.2911-2.67301-.0956-.09736-.2299-.22496-.2984-.28357-.7477-.63961-1.6411-1.01928-2.6211-1.11387-.25-.02413-7.40547-.0237-7.64818.00047zm7.44368 1.2238c1.2338.08768 2.3018.79299 2.8387 1.87482.057.11497.1239.26358.1486.33026.1073.28972.1807.63345.2039.95546.0174.23953.0177 6.93441.0005 7.17371-.0337.4654-.1422.8657-.3469 1.2787-.267.5388-.6556.9798-1.159 1.3154-.4452.2968-.9205.4757-1.4758.5555-.137.0197-.4119.0216-3.6808.0257-3.65705.0046-3.77655.0033-4.07973-.0458-.98216-.159-1.84355-.7289-2.36391-1.564-.25337-.4066-.41168-.8472-.48739-1.3565-.0205-.1379-.02221-.3769-.02627-3.6518-.00298-2.40442-.00017-3.56703.00894-3.70428.02257-.3399.0941-.68236.2051-.98209.06866-.18537.2413-.52287.34927-.68281.15232-.22561.24279-.33415.44968-.53947.2917-.28949.53608-.46255.91159-.64553.40498-.19735.87012-.31817 1.31395-.34131.20834-.01085 7.03387-.00703 7.18957.00404zm1.159 1.24499c-.1085.03684-.1799.08018-.2556.15531-.2386.23669-.2375.62828.0025.8639.248.24353.6321.24427.8767.00167.2431-.2412.243-.63009-.0004-.86957-.163-.16044-.4156-.22178-.6232-.15131zm-5.1009 1.20923c-.3349.03363-.5646.07399-.8271.14537-.5478.14891-1.09121.42503-1.55286.78906-.17501.13799-.54065.50059-.68046.67479-.43434.54121-.73167 1.17241-.86757 1.84161-.06205.3056-.07571.4568-.07577.8388-.00005.3612.00864.4766.05648.7501.2136 1.2209.9779 2.3158 2.06485 2.9578.51043.3014 1.06583.4912 1.67793.5732.1302.0174.2486.0224.533.0224.2845 0 .4029-.005.533-.0224.8246-.1105 1.5505-.418 2.1938-.9294.1484-.118.4164-.3753.5506-.5287.6063-.6933.9717-1.5532 1.0496-2.4706.0185-.2175.0084-.6882-.019-.8872-.1104-.8014-.4209-1.52597-.9193-2.14561-.1411-.17539-.5064-.53792-.6802-.67505-.6281-.49551-1.3694-.80769-2.1663-.91226-.1444-.01895-.7487-.03417-.8707-.02191zm.5591 1.23447c.7777.06107 1.481.38999 2.0108.94041.7382.76695 1.0219 1.85985.7528 2.89995-.103.3984-.2959.7847-.5618 1.1254-.1058.1356-.3751.4029-.511.5072-.5727.4395-1.2079.6551-1.9276.654-.5028-.0007-.9181-.0957-1.3635-.3118-.3132-.1519-.5617-.329-.81881-.5834-.37496-.371-.63752-.8085-.78155-1.3026-.30921-1.0605-.03168-2.1988.7287-2.98875.38726-.40235.90526-.70797 1.42876-.84296.3617-.09327.6973-.12463 1.0432-.09745z" fill-rule="evenodd"/></svg>