<svg fill="none" height="24" viewBox="0 0 24 24" width="24" xmlns="http://www.w3.org/2000/svg"><path clip-rule="evenodd" d="m4.16369 2.66455c-.82782 0-1.4989.67108-1.4989 1.4989v14.98895c0 .8278.67109 1.4989 1.4989 1.4989h14.98901c.8278 0 1.4989-.6711 1.4989-1.4989v-14.98895c0-.82782-.6711-1.4989-1.4989-1.4989zm2.95373 5.90746c.80347 0 1.45482-.65134 1.45482-1.45482s-.65135-1.45482-1.45482-1.45482c-.80348 0-1.45482.65134-1.45482 1.45482s.65134 1.45482 1.45482 1.45482zm2.78719 1.07516h2.41109v1.10453s.6543-1.30857 2.4345-1.30857c1.5881 0 2.9036.78227 2.9036 3.16687v5.0282h-2.4986v-4.4189c0-1.4067-.751-1.5614-1.3232-1.5614-1.1877 0-1.391 1.0244-1.391 1.7448v4.2355h-2.53639zm-1.51898 0h-2.53641v7.99103h2.53641z" fill-rule="evenodd"/></svg>