<svg fill="none" height="24" viewBox="0 0 24 24" width="24" xmlns="http://www.w3.org/2000/svg"><path clip-rule="evenodd" d="m13.1531 12.1115c0 2.8229-2.2729 5.1113-5.07647 5.1113-2.80358 0-5.07663-2.2884-5.07663-5.1113 0-2.82293 2.27288-5.1115 5.07663-5.1115 2.80377 0 5.07647 2.28857 5.07647 5.1115zm5.569.0001c0 2.6572-1.1364 4.8121-2.5383 4.8121-1.4018 0-2.5383-2.1549-2.5383-4.8121 0-2.65714 1.1363-4.81204 2.5382-4.81204 1.4018 0 2.5383 2.15421 2.5383 4.81204zm1.3852 4.3107c.4931 0 .8927-1.9306.8927-4.3108 0-2.38085-.3998-4.31084-.8927-4.31084-.493 0-.8926 1.93017-.8926 4.31084 0 2.3807.3995 4.3108.8926 4.3108z" fill-rule="evenodd"/></svg>