<svg fill="none" height="24" viewBox="0 0 24 24" width="24" xmlns="http://www.w3.org/2000/svg"><path d="m19.9926 7.27406c-.975 0-1.8765-.3239-2.5978-.86817-.8281-.62441-1.4258-1.54267-1.6361-2.59783-.0535-.26045-.0802-.53091-.0835-.80806h-2.7882v7.6165l-.0033 4.1706c0 1.1152-.7279 2.0602-1.733 2.3941-.2939.0968-.6077.1436-.935.1235-.42069-.0233-.81137-.1502-1.1553-.3539-.72792-.4341-1.21877-1.2221-1.23213-2.127-.02003-1.4091 1.1186-2.5611 2.52773-2.5611.2771 0 .5442.0467.7947.1269v-2.0803-.74461c-.2638-.04007-.5309-.06011-.8047-.06011-1.54271 0-2.9852.64112-4.01699 1.79642-.77801.8715-1.24549 1.9868-1.31895 3.1555-.09349 1.5326.46748 2.9918 1.55603 4.067.16028.1569.32723.3039.5042.4408.93161.7179 2.07359 1.1086 3.27571 1.1086.2704 0 .5409-.0201.8047-.0601 1.1219-.167 2.157-.6812 2.9751-1.4893 1.0051-.9917 1.5594-2.3107 1.5661-3.7131l-.0134-6.23075c.4775.37064 1.0017.6745 1.5661.91158.8748.37064 1.8031.55427 2.7547.55427v-2.02348-.7513c.0034.00334-.0067.00334-.0067.00334z"/></svg>